<svg xmlns="http://www.w3.org/2000/svg" xmlns:xlink="http://www.w3.org/1999/xlink" width="375" viewBox="0 0 375 375" height="375" version="1.0"><defs><g id="c"><path d="M 4.0625 -40.59375 L 15.546875 -40.59375 L 15.546875 -9.109375 L 34.921875 -9.109375 L 34.921875 0 L 4.0625 0 Z M 4.0625 -40.59375"/></g><g id="d"><path d="M 24.53125 0.8125 C 20.238281 0.8125 16.378906 -0.09375 12.953125 -1.90625 C 9.535156 -3.726562 6.847656 -6.242188 4.890625 -9.453125 C 2.941406 -12.660156 1.96875 -16.273438 1.96875 -20.296875 C 1.96875 -24.316406 2.941406 -27.929688 4.890625 -31.140625 C 6.847656 -34.347656 9.535156 -36.859375 12.953125 -38.671875 C 16.378906 -40.492188 20.238281 -41.40625 24.53125 -41.40625 C 28.820312 -41.40625 32.675781 -40.492188 36.09375 -38.671875 C 39.519531 -36.859375 42.207031 -34.347656 44.15625 -31.140625 C 46.113281 -27.929688 47.09375 -24.316406 47.09375 -20.296875 C 47.09375 -16.273438 46.113281 -12.660156 44.15625 -9.453125 C 42.207031 -6.242188 39.519531 -3.726562 36.09375 -1.90625 C 32.675781 -0.09375 28.820312 0.8125 24.53125 0.8125 Z M 24.53125 -8.703125 C 26.582031 -8.703125 28.4375 -9.179688 30.09375 -10.140625 C 31.757812 -11.109375 33.078125 -12.472656 34.046875 -14.234375 C 35.015625 -15.992188 35.5 -18.015625 35.5 -20.296875 C 35.5 -22.578125 35.015625 -24.597656 34.046875 -26.359375 C 33.078125 -28.117188 31.757812 -29.484375 30.09375 -30.453125 C 28.4375 -31.421875 26.582031 -31.90625 24.53125 -31.90625 C 22.476562 -31.90625 20.617188 -31.421875 18.953125 -30.453125 C 17.296875 -29.484375 15.984375 -28.117188 15.015625 -26.359375 C 14.054688 -24.597656 13.578125 -22.578125 13.578125 -20.296875 C 13.578125 -18.015625 14.054688 -15.992188 15.015625 -14.234375 C 15.984375 -12.472656 17.296875 -11.109375 18.953125 -10.140625 C 20.617188 -9.179688 22.476562 -8.703125 24.53125 -8.703125 Z M 24.53125 -8.703125"/></g><g id="e"><path d="M 25.8125 -14.5625 L 25.8125 0 L 14.328125 0 L 14.328125 -14.734375 L -1.15625 -40.59375 L 10.96875 -40.59375 L 20.59375 -24.46875 L 30.21875 -40.59375 L 41.359375 -40.59375 Z M 25.8125 -14.5625"/></g><g id="f"><path d="M 31.265625 -7.890625 L 14.09375 -7.890625 L 10.90625 0 L -0.8125 0 L 17.109375 -40.59375 L 28.421875 -40.59375 L 46.40625 0 L 34.453125 0 Z M 27.890625 -16.359375 L 22.671875 -29.34375 L 17.453125 -16.359375 Z M 27.890625 -16.359375"/></g><g id="g"><path d="M 30.21875 -20.875 C 33.382812 -20.375 35.78125 -19.265625 37.40625 -17.546875 C 39.03125 -15.828125 39.84375 -13.535156 39.84375 -10.671875 C 39.84375 -7.191406 38.601562 -4.539062 36.125 -2.71875 C 33.65625 -0.90625 29.96875 0 25.0625 0 L 7.421875 0 L 7.421875 -40.59375 L 23.890625 -40.59375 C 28.179688 -40.59375 31.546875 -39.703125 33.984375 -37.921875 C 36.421875 -36.148438 37.640625 -33.601562 37.640625 -30.28125 C 37.640625 -27.84375 36.984375 -25.828125 35.671875 -24.234375 C 34.359375 -22.648438 32.539062 -21.53125 30.21875 -20.875 Z M 9.390625 -38.859375 L 9.390625 -21.453125 L 23.953125 -21.453125 C 27.703125 -21.453125 30.601562 -22.195312 32.65625 -23.6875 C 34.707031 -25.175781 35.734375 -27.332031 35.734375 -30.15625 C 35.734375 -32.976562 34.707031 -35.132812 32.65625 -36.625 C 30.601562 -38.113281 27.703125 -38.859375 23.953125 -38.859375 Z M 25.171875 -1.734375 C 29.390625 -1.734375 32.5625 -2.46875 34.6875 -3.9375 C 36.8125 -5.40625 37.875 -7.671875 37.875 -10.734375 C 37.875 -13.828125 36.8125 -16.109375 34.6875 -17.578125 C 32.5625 -19.046875 29.390625 -19.78125 25.171875 -19.78125 L 9.390625 -19.78125 L 9.390625 -1.734375 Z M 25.171875 -1.734375"/></g><g id="h"><path d="M 34.859375 -1.796875 L 34.859375 0 L 7.421875 0 L 7.421875 -40.59375 L 34.046875 -40.59375 L 34.046875 -38.796875 L 9.390625 -38.796875 L 9.390625 -21.515625 L 31.4375 -21.515625 L 31.4375 -19.71875 L 9.390625 -19.71875 L 9.390625 -1.796875 Z M 34.859375 -1.796875"/></g><clipPath id="a"><path d="M 10 123.328125 L 81.6875 123.328125 L 81.6875 196 L 10 196 Z M 10 123.328125"/></clipPath><clipPath id="b"><path d="M 6 179 L 23 179 L 23 196.828125 L 6 196.828125 Z M 6 179"/></clipPath></defs><g clip-path="url(#a)"><path fill="#FFFBEC" d="M 81.6875 159.375 C 81.6875 160.554688 81.632812 161.730469 81.515625 162.90625 C 81.402344 164.082031 81.230469 165.246094 81 166.40625 C 80.769531 167.5625 80.484375 168.707031 80.144531 169.835938 C 79.804688 170.964844 79.410156 172.078125 78.960938 173.167969 C 78.511719 174.257812 78.011719 175.324219 77.457031 176.367188 C 76.902344 177.40625 76.300781 178.417969 75.648438 179.398438 C 74.996094 180.382812 74.296875 181.328125 73.550781 182.242188 C 72.808594 183.152344 72.019531 184.027344 71.191406 184.863281 C 70.359375 185.695312 69.492188 186.488281 68.582031 187.238281 C 67.675781 187.984375 66.734375 188.6875 65.757812 189.34375 C 64.78125 190 63.777344 190.605469 62.742188 191.164062 C 61.707031 191.71875 60.644531 192.222656 59.5625 192.675781 C 58.476562 193.128906 57.371094 193.523438 56.25 193.867188 C 55.125 194.210938 53.988281 194.496094 52.835938 194.726562 C 51.6875 194.957031 50.527344 195.128906 49.359375 195.246094 C 48.191406 195.359375 47.019531 195.417969 45.84375 195.417969 C 44.671875 195.417969 43.5 195.359375 42.332031 195.246094 C 41.164062 195.128906 40.003906 194.957031 38.851562 194.726562 C 37.699219 194.496094 36.5625 194.210938 35.4375 193.867188 C 34.316406 193.523438 33.210938 193.128906 32.128906 192.675781 C 31.042969 192.222656 29.984375 191.71875 28.949219 191.164062 C 27.914062 190.605469 26.90625 190 25.929688 189.34375 C 24.953125 188.6875 24.011719 187.984375 23.105469 187.238281 C 22.199219 186.488281 21.328125 185.695312 20.5 184.863281 C 19.667969 184.027344 18.882812 183.152344 18.136719 182.242188 C 17.390625 181.328125 16.691406 180.382812 16.039062 179.398438 C 15.386719 178.417969 14.785156 177.40625 14.234375 176.367188 C 13.679688 175.324219 13.175781 174.257812 12.726562 173.167969 C 12.277344 172.078125 11.882812 170.964844 11.542969 169.835938 C 11.203125 168.707031 10.917969 167.5625 10.6875 166.40625 C 10.460938 165.246094 10.289062 164.082031 10.171875 162.90625 C 10.058594 161.730469 10 160.554688 10 159.375 C 10 158.191406 10.058594 157.015625 10.171875 155.839844 C 10.289062 154.664062 10.460938 153.5 10.6875 152.339844 C 10.917969 151.183594 11.203125 150.039062 11.542969 148.910156 C 11.882812 147.78125 12.277344 146.671875 12.726562 145.578125 C 13.175781 144.488281 13.679688 143.421875 14.234375 142.382812 C 14.785156 141.339844 15.386719 140.328125 16.039062 139.347656 C 16.691406 138.367188 17.390625 137.417969 18.136719 136.507812 C 18.882812 135.59375 19.667969 134.71875 20.5 133.886719 C 21.328125 133.050781 22.199219 132.257812 23.105469 131.511719 C 24.011719 130.761719 24.953125 130.058594 25.929688 129.402344 C 26.90625 128.746094 27.914062 128.140625 28.949219 127.585938 C 29.984375 127.027344 31.042969 126.523438 32.128906 126.070312 C 33.210938 125.621094 34.316406 125.222656 35.4375 124.878906 C 36.5625 124.539062 37.699219 124.25 38.851562 124.019531 C 40.003906 123.789062 41.164062 123.617188 42.332031 123.5 C 43.5 123.386719 44.671875 123.328125 45.84375 123.328125 C 47.019531 123.328125 48.191406 123.386719 49.359375 123.5 C 50.527344 123.617188 51.6875 123.789062 52.835938 124.019531 C 53.988281 124.25 55.125 124.539062 56.25 124.878906 C 57.371094 125.222656 58.476562 125.621094 59.5625 126.070312 C 60.644531 126.523438 61.707031 127.027344 62.742188 127.585938 C 63.777344 128.140625 64.78125 128.746094 65.757812 129.402344 C 66.734375 130.058594 67.675781 130.761719 68.582031 131.511719 C 69.492188 132.257812 70.359375 133.050781 71.191406 133.886719 C 72.019531 134.71875 72.808594 135.59375 73.550781 136.507812 C 74.296875 137.417969 74.996094 138.367188 75.648438 139.347656 C 76.300781 140.328125 76.902344 141.339844 77.457031 142.382812 C 78.011719 143.421875 78.511719 144.488281 78.960938 145.578125 C 79.410156 146.671875 79.804688 147.78125 80.144531 148.910156 C 80.484375 150.039062 80.769531 151.183594 81 152.339844 C 81.230469 153.5 81.402344 154.664062 81.515625 155.839844 C 81.632812 157.015625 81.6875 158.191406 81.6875 159.375 Z M 81.6875 159.375"/></g><path fill="#D7B086" d="M 76.179688 159.398438 C 76.179688 160.390625 76.128906 161.378906 76.035156 162.367188 C 75.9375 163.351562 75.792969 164.332031 75.601562 165.304688 C 75.40625 166.277344 75.167969 167.238281 74.882812 168.1875 C 74.59375 169.136719 74.261719 170.070312 73.886719 170.984375 C 73.507812 171.902344 73.085938 172.796875 72.621094 173.671875 C 72.15625 174.546875 71.652344 175.394531 71.105469 176.222656 C 70.554688 177.046875 69.96875 177.839844 69.34375 178.609375 C 68.71875 179.375 68.054688 180.109375 67.359375 180.808594 C 66.660156 181.511719 65.933594 182.175781 65.167969 182.804688 C 64.40625 183.433594 63.617188 184.023438 62.796875 184.574219 C 61.976562 185.125 61.132812 185.636719 60.261719 186.101562 C 59.390625 186.570312 58.5 186.992188 57.589844 187.371094 C 56.679688 187.753906 55.753906 188.085938 54.808594 188.375 C 53.863281 188.660156 52.910156 188.902344 51.941406 189.097656 C 50.976562 189.289062 50 189.433594 49.019531 189.53125 C 48.039062 189.628906 47.054688 189.675781 46.066406 189.675781 C 45.082031 189.675781 44.097656 189.628906 43.117188 189.53125 C 42.136719 189.433594 41.160156 189.289062 40.195312 189.097656 C 39.226562 188.902344 38.269531 188.660156 37.328125 188.375 C 36.382812 188.085938 35.457031 187.753906 34.546875 187.371094 C 33.632812 186.992188 32.742188 186.570312 31.875 186.101562 C 31.003906 185.636719 30.160156 185.125 29.339844 184.574219 C 28.519531 184.023438 27.726562 183.433594 26.964844 182.804688 C 26.203125 182.175781 25.472656 181.511719 24.777344 180.808594 C 24.078125 180.109375 23.417969 179.375 22.792969 178.609375 C 22.167969 177.839844 21.578125 177.046875 21.03125 176.222656 C 20.484375 175.394531 19.976562 174.546875 19.511719 173.671875 C 19.046875 172.796875 18.625 171.902344 18.25 170.984375 C 17.871094 170.070312 17.539062 169.136719 17.253906 168.1875 C 16.96875 167.238281 16.726562 166.277344 16.535156 165.304688 C 16.34375 164.332031 16.199219 163.351562 16.101562 162.367188 C 16.003906 161.378906 15.957031 160.390625 15.957031 159.398438 C 15.957031 158.40625 16.003906 157.417969 16.101562 156.429688 C 16.199219 155.445312 16.34375 154.464844 16.535156 153.492188 C 16.726562 152.519531 16.96875 151.558594 17.253906 150.609375 C 17.539062 149.660156 17.871094 148.726562 18.25 147.8125 C 18.625 146.894531 19.046875 146 19.511719 145.125 C 19.976562 144.25 20.484375 143.402344 21.03125 142.578125 C 21.578125 141.753906 22.167969 140.957031 22.792969 140.191406 C 23.417969 139.421875 24.078125 138.6875 24.777344 137.988281 C 25.472656 137.285156 26.203125 136.621094 26.964844 135.992188 C 27.726562 135.363281 28.519531 134.773438 29.339844 134.222656 C 30.160156 133.671875 31.003906 133.164062 31.875 132.695312 C 32.742188 132.226562 33.632812 131.804688 34.546875 131.425781 C 35.457031 131.046875 36.382812 130.710938 37.328125 130.421875 C 38.269531 130.136719 39.226562 129.894531 40.195312 129.703125 C 41.160156 129.507812 42.136719 129.363281 43.117188 129.265625 C 44.097656 129.167969 45.082031 129.121094 46.066406 129.121094 C 47.054688 129.121094 48.039062 129.167969 49.019531 129.265625 C 50 129.363281 50.976562 129.507812 51.941406 129.703125 C 52.910156 129.894531 53.863281 130.136719 54.808594 130.421875 C 55.753906 130.710938 56.679688 131.046875 57.589844 131.425781 C 58.5 131.804688 59.390625 132.226562 60.261719 132.695312 C 61.132812 133.164062 61.976562 133.671875 62.796875 134.222656 C 63.617188 134.773438 64.40625 135.363281 65.167969 135.992188 C 65.933594 136.621094 66.660156 137.285156 67.359375 137.988281 C 68.054688 138.6875 68.71875 139.421875 69.34375 140.191406 C 69.96875 140.957031 70.554688 141.753906 71.105469 142.578125 C 71.652344 143.402344 72.15625 144.25 72.621094 145.125 C 73.085938 146 73.507812 146.894531 73.886719 147.8125 C 74.261719 148.726562 74.59375 149.660156 74.882812 150.609375 C 75.167969 151.558594 75.40625 152.519531 75.601562 153.492188 C 75.792969 154.464844 75.9375 155.445312 76.035156 156.429688 C 76.128906 157.417969 76.179688 158.40625 76.179688 159.398438 Z M 76.179688 159.398438"/><g clip-path="url(#b)"><path fill="#FFFBEC" d="M 8.164062 195.476562 L 7.539062 194.90625 C 6.054688 193.554688 5.941406 191.230469 7.285156 189.738281 L 15.53125 180.578125 C 16.875 179.085938 19.1875 178.96875 20.667969 180.320312 L 21.296875 180.890625 C 22.777344 182.238281 22.894531 184.566406 21.550781 186.058594 L 13.304688 195.21875 C 11.960938 196.710938 9.648438 196.828125 8.164062 195.476562 Z M 8.164062 195.476562"/></g><path fill="#382317" d="M 41.128906 137.457031 C 41.5625 138.445312 42.316406 140.171875 41.625 141.351562 C 40.863281 142.640625 38.988281 142.210938 36.015625 142.800781 C 34.21875 143.152344 29.871094 144.011719 27.972656 146.84375 C 26.136719 149.578125 28.441406 151.402344 26.828125 155.730469 C 25.386719 159.609375 23.054688 159.429688 22.660156 162.519531 C 22.300781 165.332031 24.179688 165.921875 24.746094 170.558594 C 25.171875 174.0625 24.191406 174.484375 24.746094 176.699219 C 25.792969 180.878906 30.242188 183.125 32.9375 184.484375 C 34.175781 185.109375 39.335938 187.585938 46.738281 187.230469 C 49.75 187.085938 57.355469 186.71875 64.113281 180.890625 C 64.875 180.234375 73.371094 172.660156 73.25 160.570312 C 73.175781 153.507812 70.195312 148.476562 69.078125 146.644531 C 65.65625 141.03125 61.175781 138.167969 57.015625 135.511719 C 52.59375 132.6875 49.921875 132.019531 49.023438 131.816406 C 43.878906 130.65625 38.410156 131.546875 38.101562 133.113281 C 37.90625 134.089844 39.867188 134.578125 41.128906 137.457031 Z M 41.128906 137.457031"/><path fill="#382317" d="M 34.128906 134.3125 C 34.128906 134.464844 34.074219 134.59375 33.96875 134.699219 C 33.863281 134.808594 33.734375 134.859375 33.582031 134.859375 C 33.429688 134.859375 33.300781 134.808594 33.195312 134.699219 C 33.089844 134.59375 33.035156 134.464844 33.035156 134.3125 C 33.035156 134.160156 33.089844 134.03125 33.195312 133.921875 C 33.300781 133.816406 33.429688 133.761719 33.582031 133.761719 C 33.734375 133.761719 33.863281 133.816406 33.96875 133.921875 C 34.074219 134.03125 34.128906 134.160156 34.128906 134.3125 Z M 34.128906 134.3125"/><path fill="#382317" d="M 33.878906 136.683594 C 33.878906 136.800781 33.839844 136.898438 33.757812 136.984375 C 33.671875 137.066406 33.574219 137.109375 33.457031 137.109375 C 33.339844 137.109375 33.242188 137.066406 33.160156 136.984375 C 33.078125 136.898438 33.035156 136.800781 33.035156 136.683594 C 33.035156 136.566406 33.078125 136.464844 33.160156 136.382812 C 33.242188 136.300781 33.339844 136.257812 33.457031 136.257812 C 33.574219 136.257812 33.671875 136.300781 33.757812 136.382812 C 33.839844 136.464844 33.878906 136.566406 33.878906 136.683594 Z M 33.878906 136.683594"/><path fill="#382317" d="M 29.90625 137.804688 C 29.90625 137.929688 29.863281 138.035156 29.777344 138.125 C 29.691406 138.210938 29.585938 138.253906 29.460938 138.253906 C 29.335938 138.253906 29.234375 138.210938 29.144531 138.125 C 29.058594 138.035156 29.015625 137.929688 29.015625 137.804688 C 29.015625 137.683594 29.058594 137.578125 29.144531 137.488281 C 29.234375 137.402344 29.335938 137.355469 29.460938 137.355469 C 29.585938 137.355469 29.691406 137.402344 29.777344 137.488281 C 29.863281 137.578125 29.90625 137.683594 29.90625 137.804688 Z M 29.90625 137.804688"/><path fill="#382317" d="M 31.148438 140.703125 C 31.148438 140.824219 31.105469 140.933594 31.019531 141.019531 C 30.929688 141.109375 30.824219 141.152344 30.703125 141.152344 C 30.578125 141.152344 30.472656 141.109375 30.386719 141.019531 C 30.300781 140.933594 30.253906 140.824219 30.253906 140.703125 C 30.253906 140.578125 30.300781 140.472656 30.386719 140.382812 C 30.472656 140.296875 30.578125 140.253906 30.703125 140.253906 C 30.824219 140.253906 30.929688 140.296875 31.019531 140.382812 C 31.105469 140.472656 31.148438 140.578125 31.148438 140.703125 Z M 31.148438 140.703125"/><path fill="#382317" d="M 38.746094 138.554688 C 38.746094 138.636719 38.714844 138.707031 38.65625 138.765625 C 38.601562 138.824219 38.53125 138.855469 38.445312 138.855469 C 38.363281 138.855469 38.292969 138.824219 38.238281 138.765625 C 38.179688 138.707031 38.148438 138.636719 38.148438 138.554688 C 38.148438 138.472656 38.179688 138.402344 38.238281 138.34375 C 38.292969 138.285156 38.363281 138.253906 38.445312 138.253906 C 38.53125 138.253906 38.601562 138.285156 38.65625 138.34375 C 38.714844 138.402344 38.746094 138.472656 38.746094 138.554688 Z M 38.746094 138.554688"/><path fill="#382317" d="M 34.328125 138.929688 C 34.328125 139.03125 34.289062 139.121094 34.21875 139.195312 C 34.144531 139.269531 34.058594 139.304688 33.953125 139.304688 C 33.851562 139.304688 33.761719 139.269531 33.691406 139.195312 C 33.617188 139.121094 33.582031 139.03125 33.582031 138.929688 C 33.582031 138.828125 33.617188 138.738281 33.691406 138.664062 C 33.761719 138.59375 33.851562 138.554688 33.953125 138.554688 C 34.058594 138.554688 34.144531 138.59375 34.21875 138.664062 C 34.289062 138.738281 34.328125 138.828125 34.328125 138.929688 Z M 34.328125 138.929688"/><path fill="#382317" d="M 31.992188 138.554688 C 31.992188 138.636719 31.964844 138.707031 31.90625 138.765625 C 31.847656 138.824219 31.777344 138.855469 31.695312 138.855469 C 31.613281 138.855469 31.542969 138.824219 31.484375 138.765625 C 31.425781 138.707031 31.398438 138.636719 31.398438 138.554688 C 31.398438 138.472656 31.425781 138.402344 31.484375 138.34375 C 31.542969 138.285156 31.613281 138.253906 31.695312 138.253906 C 31.777344 138.253906 31.847656 138.285156 31.90625 138.34375 C 31.964844 138.402344 31.992188 138.472656 31.992188 138.554688 Z M 31.992188 138.554688"/><path fill="#382317" d="M 37.554688 135.183594 C 37.554688 135.273438 37.523438 135.351562 37.460938 135.414062 C 37.394531 135.476562 37.320312 135.511719 37.230469 135.511719 C 37.140625 135.511719 37.066406 135.476562 37.003906 135.414062 C 36.941406 135.351562 36.90625 135.273438 36.90625 135.183594 C 36.90625 135.097656 36.941406 135.019531 37.003906 134.957031 C 37.066406 134.890625 37.140625 134.859375 37.230469 134.859375 C 37.320312 134.859375 37.394531 134.890625 37.460938 134.957031 C 37.523438 135.019531 37.554688 135.097656 37.554688 135.183594 Z M 37.554688 135.183594"/><path fill="#382317" d="M 30.40625 135.210938 C 30.40625 135.277344 30.378906 135.339844 30.332031 135.386719 C 30.285156 135.4375 30.226562 135.460938 30.15625 135.460938 C 30.085938 135.460938 30.027344 135.4375 29.980469 135.386719 C 29.933594 135.339844 29.90625 135.277344 29.90625 135.210938 C 29.90625 135.140625 29.933594 135.082031 29.980469 135.035156 C 30.027344 134.984375 30.085938 134.960938 30.15625 134.960938 C 30.226562 134.960938 30.285156 134.984375 30.332031 135.035156 C 30.378906 135.082031 30.40625 135.140625 30.40625 135.210938 Z M 30.40625 135.210938"/><path fill="#382317" d="M 36.363281 137.007812 C 36.363281 137.105469 36.328125 137.1875 36.261719 137.253906 C 36.191406 137.324219 36.109375 137.355469 36.015625 137.355469 C 35.917969 137.355469 35.835938 137.324219 35.769531 137.253906 C 35.699219 137.1875 35.667969 137.105469 35.667969 137.007812 C 35.667969 136.910156 35.699219 136.828125 35.769531 136.761719 C 35.835938 136.691406 35.917969 136.65625 36.015625 136.65625 C 36.109375 136.65625 36.191406 136.691406 36.261719 136.761719 C 36.328125 136.828125 36.363281 136.910156 36.363281 137.007812 Z M 36.363281 137.007812"/><path fill="#382317" d="M 26.980469 139.953125 C 26.980469 140.132812 26.914062 140.285156 26.789062 140.410156 C 26.664062 140.539062 26.511719 140.601562 26.332031 140.601562 C 26.15625 140.601562 26.003906 140.539062 25.878906 140.410156 C 25.75 140.285156 25.6875 140.132812 25.6875 139.953125 C 25.6875 139.773438 25.75 139.621094 25.878906 139.496094 C 26.003906 139.367188 26.15625 139.304688 26.332031 139.304688 C 26.511719 139.304688 26.664062 139.367188 26.789062 139.496094 C 26.914062 139.621094 26.980469 139.773438 26.980469 139.953125 Z M 26.980469 139.953125"/><path fill="#382317" d="M 26.332031 143.171875 C 26.332031 143.261719 26.300781 143.339844 26.238281 143.402344 C 26.175781 143.464844 26.101562 143.496094 26.011719 143.496094 C 25.921875 143.496094 25.84375 143.464844 25.78125 143.402344 C 25.71875 143.339844 25.6875 143.261719 25.6875 143.171875 C 25.6875 143.082031 25.71875 143.007812 25.78125 142.945312 C 25.84375 142.878906 25.921875 142.847656 26.011719 142.847656 C 26.101562 142.847656 26.175781 142.878906 26.238281 142.945312 C 26.300781 143.007812 26.332031 143.082031 26.332031 143.171875 Z M 26.332031 143.171875"/><path fill="#382317" d="M 30.105469 142.949219 C 30.105469 143.101562 30.054688 143.230469 29.945312 143.335938 C 29.839844 143.445312 29.710938 143.496094 29.558594 143.496094 C 29.410156 143.496094 29.28125 143.445312 29.175781 143.335938 C 29.066406 143.230469 29.015625 143.101562 29.015625 142.949219 C 29.015625 142.796875 29.066406 142.667969 29.175781 142.558594 C 29.28125 142.453125 29.410156 142.398438 29.558594 142.398438 C 29.710938 142.398438 29.839844 142.453125 29.945312 142.558594 C 30.054688 142.667969 30.105469 142.796875 30.105469 142.949219 Z M 30.105469 142.949219"/><path fill="#382317" d="M 38.445312 141.152344 C 38.445312 141.277344 38.402344 141.382812 38.316406 141.46875 C 38.230469 141.558594 38.125 141.601562 38 141.601562 C 37.878906 141.601562 37.773438 141.558594 37.683594 141.46875 C 37.597656 141.382812 37.554688 141.277344 37.554688 141.152344 C 37.554688 141.027344 37.597656 140.921875 37.683594 140.832031 C 37.773438 140.746094 37.878906 140.703125 38 140.703125 C 38.125 140.703125 38.230469 140.746094 38.316406 140.832031 C 38.402344 140.921875 38.445312 141.027344 38.445312 141.152344 Z M 38.445312 141.152344"/><path fill="#382317" d="M 35.21875 140.101562 C 35.21875 140.203125 35.171875 140.253906 35.070312 140.253906 C 34.972656 140.253906 34.921875 140.203125 34.921875 140.101562 C 34.921875 140.003906 34.972656 139.953125 35.070312 139.953125 C 35.171875 139.953125 35.21875 140.003906 35.21875 140.101562 Z M 35.21875 140.101562"/><path fill="#382317" d="M 33.878906 142.226562 C 33.878906 142.375 33.804688 142.449219 33.65625 142.449219 C 33.507812 142.449219 33.433594 142.375 33.433594 142.226562 C 33.433594 142.074219 33.507812 142 33.65625 142 C 33.804688 142 33.878906 142.074219 33.878906 142.226562 Z M 33.878906 142.226562"/><path fill="#382317" d="M 22.609375 144.519531 C 22.609375 144.652344 22.5625 144.765625 22.472656 144.855469 C 22.378906 144.949219 22.269531 144.996094 22.136719 144.996094 C 22.007812 144.996094 21.898438 144.949219 21.804688 144.855469 C 21.710938 144.765625 21.667969 144.652344 21.667969 144.519531 C 21.667969 144.390625 21.710938 144.277344 21.804688 144.1875 C 21.898438 144.09375 22.007812 144.046875 22.136719 144.046875 C 22.269531 144.046875 22.378906 144.09375 22.472656 144.1875 C 22.5625 144.277344 22.609375 144.390625 22.609375 144.519531 Z M 22.609375 144.519531"/><path fill="#382317" d="M 24.792969 147.117188 C 24.792969 147.191406 24.769531 147.257812 24.714844 147.3125 C 24.660156 147.363281 24.597656 147.390625 24.519531 147.390625 C 24.445312 147.390625 24.382812 147.363281 24.328125 147.3125 C 24.273438 147.257812 24.25 147.191406 24.25 147.117188 C 24.25 147.042969 24.273438 146.976562 24.328125 146.921875 C 24.382812 146.871094 24.445312 146.84375 24.519531 146.84375 C 24.597656 146.84375 24.660156 146.871094 24.714844 146.921875 C 24.769531 146.976562 24.792969 147.042969 24.792969 147.117188 Z M 24.792969 147.117188"/><path fill="#382317" d="M 24.992188 144.746094 C 24.992188 144.816406 24.96875 144.875 24.921875 144.921875 C 24.871094 144.972656 24.8125 144.996094 24.746094 144.996094 C 24.675781 144.996094 24.617188 144.972656 24.570312 144.921875 C 24.519531 144.875 24.496094 144.816406 24.496094 144.746094 C 24.496094 144.675781 24.519531 144.617188 24.570312 144.570312 C 24.617188 144.519531 24.675781 144.496094 24.746094 144.496094 C 24.8125 144.496094 24.871094 144.519531 24.921875 144.570312 C 24.96875 144.617188 24.992188 144.675781 24.992188 144.746094 Z M 24.992188 144.746094"/><path fill="#382317" d="M 20.921875 148.242188 C 20.921875 148.375 20.855469 148.441406 20.722656 148.441406 C 20.589844 148.441406 20.523438 148.375 20.523438 148.242188 C 20.523438 148.109375 20.589844 148.039062 20.722656 148.039062 C 20.855469 148.039062 20.921875 148.109375 20.921875 148.242188 Z M 20.921875 148.242188"/><path fill="#382317" d="M 22.164062 150.863281 C 22.164062 150.980469 22.121094 151.078125 22.039062 151.160156 C 21.957031 151.246094 21.859375 151.285156 21.742188 151.285156 C 21.625 151.285156 21.523438 151.246094 21.441406 151.160156 C 21.359375 151.078125 21.320312 150.980469 21.320312 150.863281 C 21.320312 150.746094 21.359375 150.644531 21.441406 150.5625 C 21.523438 150.480469 21.625 150.4375 21.742188 150.4375 C 21.859375 150.4375 21.957031 150.480469 22.039062 150.5625 C 22.121094 150.644531 22.164062 150.746094 22.164062 150.863281 Z M 22.164062 150.863281"/><path fill="#382317" d="M 22.609375 153.53125 C 22.609375 153.601562 22.585938 153.660156 22.539062 153.710938 C 22.488281 153.757812 22.429688 153.78125 22.363281 153.78125 C 22.292969 153.78125 22.234375 153.757812 22.1875 153.710938 C 22.136719 153.660156 22.113281 153.601562 22.113281 153.53125 C 22.113281 153.464844 22.136719 153.40625 22.1875 153.355469 C 22.234375 153.308594 22.292969 153.28125 22.363281 153.28125 C 22.429688 153.28125 22.488281 153.308594 22.539062 153.355469 C 22.585938 153.40625 22.609375 153.464844 22.609375 153.53125 Z M 22.609375 153.53125"/><path fill="#382317" d="M 20.921875 155.328125 C 20.921875 155.425781 20.886719 155.507812 20.820312 155.578125 C 20.753906 155.644531 20.671875 155.679688 20.574219 155.679688 C 20.480469 155.679688 20.398438 155.644531 20.328125 155.578125 C 20.261719 155.507812 20.226562 155.425781 20.226562 155.328125 C 20.226562 155.234375 20.261719 155.152344 20.328125 155.082031 C 20.398438 155.015625 20.480469 154.980469 20.574219 154.980469 C 20.671875 154.980469 20.753906 155.015625 20.820312 155.082031 C 20.886719 155.152344 20.921875 155.234375 20.921875 155.328125 Z M 20.921875 155.328125"/><path fill="#382317" d="M 19.730469 157.824219 C 19.730469 157.960938 19.664062 158.027344 19.53125 158.027344 C 19.398438 158.027344 19.332031 157.960938 19.332031 157.824219 C 19.332031 157.691406 19.398438 157.625 19.53125 157.625 C 19.664062 157.625 19.730469 157.691406 19.730469 157.824219 Z M 19.730469 157.824219"/><path fill="#382317" d="M 18.738281 153.730469 C 18.738281 153.855469 18.695312 153.960938 18.605469 154.050781 C 18.519531 154.136719 18.414062 154.179688 18.289062 154.179688 C 18.167969 154.179688 18.0625 154.136719 17.976562 154.050781 C 17.886719 153.960938 17.84375 153.855469 17.84375 153.730469 C 17.84375 153.609375 17.886719 153.503906 17.976562 153.414062 C 18.0625 153.328125 18.167969 153.28125 18.289062 153.28125 C 18.414062 153.28125 18.519531 153.328125 18.605469 153.414062 C 18.695312 153.503906 18.738281 153.609375 18.738281 153.730469 Z M 18.738281 153.730469"/><path fill="#382317" d="M 17.398438 156.554688 C 17.398438 156.671875 17.355469 156.769531 17.273438 156.851562 C 17.191406 156.9375 17.089844 156.976562 16.976562 156.976562 C 16.859375 156.976562 16.757812 156.9375 16.675781 156.851562 C 16.59375 156.769531 16.554688 156.671875 16.554688 156.554688 C 16.554688 156.4375 16.59375 156.335938 16.675781 156.253906 C 16.757812 156.171875 16.859375 156.128906 16.976562 156.128906 C 17.089844 156.128906 17.191406 156.171875 17.273438 156.253906 C 17.355469 156.335938 17.398438 156.4375 17.398438 156.554688 Z M 17.398438 156.554688"/><path fill="#382317" d="M 18.984375 156.351562 C 18.984375 156.503906 18.910156 156.578125 18.761719 156.578125 C 18.613281 156.578125 18.539062 156.503906 18.539062 156.351562 C 18.539062 156.203125 18.613281 156.128906 18.761719 156.128906 C 18.910156 156.128906 18.984375 156.203125 18.984375 156.351562 Z M 18.984375 156.351562"/><path fill="#382317" d="M 23.15625 155.828125 C 23.15625 155.96875 23.109375 156.085938 23.011719 156.183594 C 22.914062 156.28125 22.796875 156.328125 22.660156 156.328125 C 22.523438 156.328125 22.40625 156.28125 22.308594 156.183594 C 22.210938 156.085938 22.164062 155.96875 22.164062 155.828125 C 22.164062 155.691406 22.210938 155.574219 22.308594 155.476562 C 22.40625 155.378906 22.523438 155.328125 22.660156 155.328125 C 22.796875 155.328125 22.914062 155.378906 23.011719 155.476562 C 23.109375 155.574219 23.15625 155.691406 23.15625 155.828125 Z M 23.15625 155.828125"/><path fill="#382317" d="M 22.660156 158.425781 C 22.660156 158.535156 22.621094 158.628906 22.542969 158.707031 C 22.464844 158.785156 22.371094 158.824219 22.261719 158.824219 C 22.152344 158.824219 22.058594 158.785156 21.980469 158.707031 C 21.902344 158.628906 21.867188 158.535156 21.867188 158.425781 C 21.867188 158.316406 21.902344 158.21875 21.980469 158.144531 C 22.058594 158.066406 22.152344 158.027344 22.261719 158.027344 C 22.371094 158.027344 22.464844 158.066406 22.542969 158.144531 C 22.621094 158.21875 22.660156 158.316406 22.660156 158.425781 Z M 22.660156 158.425781"/><path fill="#382317" d="M 25.6875 153.53125 C 25.6875 153.699219 25.628906 153.839844 25.511719 153.957031 C 25.398438 154.074219 25.257812 154.132812 25.09375 154.132812 C 24.929688 154.132812 24.789062 154.074219 24.671875 153.957031 C 24.554688 153.839844 24.496094 153.699219 24.496094 153.53125 C 24.496094 153.367188 24.554688 153.226562 24.671875 153.109375 C 24.789062 152.992188 24.929688 152.933594 25.09375 152.933594 C 25.257812 152.933594 25.398438 152.992188 25.511719 153.109375 C 25.628906 153.226562 25.6875 153.367188 25.6875 153.53125 Z M 25.6875 153.53125"/><path fill="#382317" d="M 23.902344 151.0625 C 23.902344 151.210938 23.828125 151.285156 23.675781 151.285156 C 23.527344 151.285156 23.453125 151.210938 23.453125 151.0625 C 23.453125 150.910156 23.527344 150.835938 23.675781 150.835938 C 23.828125 150.835938 23.902344 150.910156 23.902344 151.0625 Z M 23.902344 151.0625"/><path fill="#382317" d="M 19.53125 151.234375 C 19.53125 151.347656 19.492188 151.441406 19.414062 151.519531 C 19.339844 151.597656 19.246094 151.636719 19.136719 151.636719 C 19.023438 151.636719 18.929688 151.597656 18.855469 151.519531 C 18.777344 151.441406 18.738281 151.347656 18.738281 151.234375 C 18.738281 151.125 18.777344 151.03125 18.855469 150.953125 C 18.929688 150.875 19.023438 150.835938 19.136719 150.835938 C 19.246094 150.835938 19.339844 150.875 19.414062 150.953125 C 19.492188 151.03125 19.53125 151.125 19.53125 151.234375 Z M 19.53125 151.234375"/><path fill="#382317" d="M 23.949219 149.089844 C 23.949219 149.199219 23.910156 149.292969 23.835938 149.371094 C 23.757812 149.449219 23.664062 149.488281 23.554688 149.488281 C 23.445312 149.488281 23.351562 149.449219 23.273438 149.371094 C 23.195312 149.292969 23.15625 149.199219 23.15625 149.089844 C 23.15625 148.980469 23.195312 148.886719 23.273438 148.808594 C 23.351562 148.730469 23.445312 148.691406 23.554688 148.691406 C 23.664062 148.691406 23.757812 148.730469 23.835938 148.808594 C 23.910156 148.886719 23.949219 148.980469 23.949219 149.089844 Z M 23.949219 149.089844"/><path fill="#382317" d="M 26.285156 147.242188 C 26.285156 147.34375 26.234375 147.390625 26.136719 147.390625 C 26.035156 147.390625 25.984375 147.34375 25.984375 147.242188 C 25.984375 147.140625 26.035156 147.09375 26.136719 147.09375 C 26.234375 147.09375 26.285156 147.140625 26.285156 147.242188 Z M 26.285156 147.242188"/><path fill="#382317" d="M 26.332031 150.261719 C 26.332031 150.378906 26.277344 150.4375 26.160156 150.4375 C 26.042969 150.4375 25.984375 150.378906 25.984375 150.261719 C 25.984375 150.144531 26.042969 150.085938 26.160156 150.085938 C 26.277344 150.085938 26.332031 150.144531 26.332031 150.261719 Z M 26.332031 150.261719"/><path fill="#382317" d="M 19.53125 160.148438 C 19.53125 160.222656 19.503906 160.289062 19.453125 160.339844 C 19.398438 160.394531 19.335938 160.421875 19.257812 160.421875 C 19.183594 160.421875 19.121094 160.394531 19.066406 160.339844 C 19.011719 160.289062 18.984375 160.222656 18.984375 160.148438 C 18.984375 160.070312 19.011719 160.007812 19.066406 159.953125 C 19.121094 159.898438 19.183594 159.871094 19.257812 159.871094 C 19.335938 159.871094 19.398438 159.898438 19.453125 159.953125 C 19.503906 160.007812 19.53125 160.070312 19.53125 160.148438 Z M 19.53125 160.148438"/><path fill="#382317" d="M 19.730469 162.21875 C 19.730469 162.289062 19.707031 162.347656 19.65625 162.394531 C 19.609375 162.445312 19.550781 162.46875 19.480469 162.46875 C 19.414062 162.46875 19.355469 162.445312 19.308594 162.394531 C 19.257812 162.347656 19.234375 162.289062 19.234375 162.21875 C 19.234375 162.152344 19.257812 162.089844 19.308594 162.042969 C 19.355469 161.992188 19.414062 161.96875 19.480469 161.96875 C 19.550781 161.96875 19.609375 161.992188 19.65625 162.042969 C 19.707031 162.089844 19.730469 162.152344 19.730469 162.21875 Z M 19.730469 162.21875"/><path fill="#382317" d="M 17.84375 161.371094 C 17.84375 161.46875 17.808594 161.550781 17.742188 161.617188 C 17.675781 161.6875 17.59375 161.71875 17.496094 161.71875 C 17.402344 161.71875 17.320312 161.6875 17.25 161.617188 C 17.183594 161.550781 17.148438 161.46875 17.148438 161.371094 C 17.148438 161.273438 17.183594 161.191406 17.25 161.125 C 17.320312 161.054688 17.402344 161.019531 17.496094 161.019531 C 17.59375 161.019531 17.675781 161.054688 17.742188 161.125 C 17.808594 161.191406 17.84375 161.273438 17.84375 161.371094 Z M 17.84375 161.371094"/><path fill="#382317" d="M 16.949219 158.625 C 16.949219 158.757812 16.882812 158.824219 16.75 158.824219 C 16.621094 158.824219 16.554688 158.757812 16.554688 158.625 C 16.554688 158.492188 16.621094 158.425781 16.75 158.425781 C 16.882812 158.425781 16.949219 158.492188 16.949219 158.625 Z M 16.949219 158.625"/><path fill="#382317" d="M 18.539062 164.117188 C 18.539062 164.214844 18.503906 164.296875 18.4375 164.363281 C 18.371094 164.433594 18.289062 164.464844 18.191406 164.464844 C 18.09375 164.464844 18.015625 164.433594 17.945312 164.363281 C 17.878906 164.296875 17.84375 164.214844 17.84375 164.117188 C 17.84375 164.019531 17.878906 163.9375 17.945312 163.871094 C 18.015625 163.800781 18.09375 163.765625 18.191406 163.765625 C 18.289062 163.765625 18.371094 163.800781 18.4375 163.871094 C 18.503906 163.9375 18.539062 164.019531 18.539062 164.117188 Z M 18.539062 164.117188"/><path fill="#382317" d="M 22.015625 161.371094 C 22.015625 161.46875 21.980469 161.550781 21.914062 161.617188 C 21.84375 161.6875 21.761719 161.71875 21.667969 161.71875 C 21.570312 161.71875 21.488281 161.6875 21.421875 161.617188 C 21.351562 161.550781 21.320312 161.46875 21.320312 161.371094 C 21.320312 161.273438 21.351562 161.191406 21.421875 161.125 C 21.488281 161.054688 21.570312 161.019531 21.667969 161.019531 C 21.761719 161.019531 21.84375 161.054688 21.914062 161.125 C 21.980469 161.191406 22.015625 161.273438 22.015625 161.371094 Z M 22.015625 161.371094"/><path fill="#382317" d="M 24.945312 156.351562 C 24.945312 156.503906 24.867188 156.578125 24.71875 156.578125 C 24.570312 156.578125 24.496094 156.503906 24.496094 156.351562 C 24.496094 156.203125 24.570312 156.128906 24.71875 156.128906 C 24.867188 156.128906 24.945312 156.203125 24.945312 156.351562 Z M 24.945312 156.351562"/><path fill="#382317" d="M 19.730469 167.085938 C 19.730469 167.191406 19.695312 167.277344 19.621094 167.351562 C 19.550781 167.425781 19.460938 167.460938 19.359375 167.460938 C 19.253906 167.460938 19.167969 167.425781 19.09375 167.351562 C 19.023438 167.277344 18.984375 167.191406 18.984375 167.085938 C 18.984375 166.984375 19.023438 166.894531 19.09375 166.820312 C 19.167969 166.75 19.253906 166.710938 19.359375 166.710938 C 19.460938 166.710938 19.550781 166.75 19.621094 166.820312 C 19.695312 166.894531 19.730469 166.984375 19.730469 167.085938 Z M 19.730469 167.085938"/><path fill="#382317" d="M 21.171875 165.039062 C 21.171875 165.191406 21.097656 165.265625 20.945312 165.265625 C 20.796875 165.265625 20.722656 165.191406 20.722656 165.039062 C 20.722656 164.890625 20.796875 164.816406 20.945312 164.816406 C 21.097656 164.816406 21.171875 164.890625 21.171875 165.039062 Z M 21.171875 165.039062"/><path fill="#382317" d="M 21.171875 170.480469 C 21.171875 170.613281 21.125 170.722656 21.03125 170.816406 C 20.941406 170.910156 20.828125 170.957031 20.699219 170.957031 C 20.570312 170.957031 20.457031 170.910156 20.363281 170.816406 C 20.273438 170.722656 20.226562 170.613281 20.226562 170.480469 C 20.226562 170.351562 20.273438 170.238281 20.363281 170.144531 C 20.457031 170.054688 20.570312 170.007812 20.699219 170.007812 C 20.828125 170.007812 20.941406 170.054688 21.03125 170.144531 C 21.125 170.238281 21.171875 170.351562 21.171875 170.480469 Z M 21.171875 170.480469"/><path fill="#382317" d="M 22.808594 167.4375 C 22.808594 167.527344 22.777344 167.601562 22.714844 167.664062 C 22.652344 167.730469 22.574219 167.761719 22.484375 167.761719 C 22.398438 167.761719 22.320312 167.730469 22.257812 167.664062 C 22.195312 167.601562 22.164062 167.527344 22.164062 167.4375 C 22.164062 167.347656 22.195312 167.269531 22.257812 167.207031 C 22.320312 167.144531 22.398438 167.113281 22.484375 167.113281 C 22.574219 167.113281 22.652344 167.144531 22.714844 167.207031 C 22.777344 167.269531 22.808594 167.347656 22.808594 167.4375 Z M 22.808594 167.4375"/><path fill="#382317" d="M 23.652344 170.433594 C 23.652344 170.550781 23.613281 170.648438 23.527344 170.730469 C 23.445312 170.816406 23.347656 170.855469 23.230469 170.855469 C 23.113281 170.855469 23.015625 170.816406 22.933594 170.730469 C 22.851562 170.648438 22.808594 170.550781 22.808594 170.433594 C 22.808594 170.316406 22.851562 170.214844 22.933594 170.132812 C 23.015625 170.050781 23.113281 170.007812 23.230469 170.007812 C 23.347656 170.007812 23.445312 170.050781 23.527344 170.132812 C 23.613281 170.214844 23.652344 170.316406 23.652344 170.433594 Z M 23.652344 170.433594"/><path fill="#382317" d="M 22.164062 172.902344 C 22.164062 173.035156 22.097656 173.101562 21.964844 173.101562 C 21.832031 173.101562 21.765625 173.035156 21.765625 172.902344 C 21.765625 172.769531 21.832031 172.703125 21.964844 172.703125 C 22.097656 172.703125 22.164062 172.769531 22.164062 172.902344 Z M 22.164062 172.902344"/><path fill="#382317" d="M 22.363281 174.949219 C 22.363281 175.019531 22.335938 175.078125 22.289062 175.125 C 22.242188 175.175781 22.183594 175.199219 22.113281 175.199219 C 22.046875 175.199219 21.988281 175.175781 21.9375 175.125 C 21.890625 175.078125 21.867188 175.019531 21.867188 174.949219 C 21.867188 174.882812 21.890625 174.824219 21.9375 174.773438 C 21.988281 174.726562 22.046875 174.699219 22.113281 174.699219 C 22.183594 174.699219 22.242188 174.726562 22.289062 174.773438 C 22.335938 174.824219 22.363281 174.882812 22.363281 174.949219 Z M 22.363281 174.949219"/><path fill="#382317" d="M 23.902344 173.003906 C 23.902344 173.070312 23.867188 173.101562 23.800781 173.101562 C 23.734375 173.101562 23.703125 173.070312 23.703125 173.003906 C 23.703125 172.9375 23.734375 172.902344 23.800781 172.902344 C 23.867188 172.902344 23.902344 172.9375 23.902344 173.003906 Z M 23.902344 173.003906"/><path fill="#382317" d="M 20.226562 171.929688 C 20.226562 172.011719 20.1875 172.054688 20.101562 172.054688 C 20.019531 172.054688 19.980469 172.011719 19.980469 171.929688 C 19.980469 171.847656 20.019531 171.804688 20.101562 171.804688 C 20.1875 171.804688 20.226562 171.847656 20.226562 171.929688 Z M 20.226562 171.929688"/><path fill="#382317" d="M 18.738281 168.609375 C 18.738281 168.675781 18.703125 168.710938 18.636719 168.710938 C 18.570312 168.710938 18.539062 168.675781 18.539062 168.609375 C 18.539062 168.542969 18.570312 168.511719 18.636719 168.511719 C 18.703125 168.511719 18.738281 168.542969 18.738281 168.609375 Z M 18.738281 168.609375"/><path fill="#382317" d="M 17.84375 165.890625 C 17.84375 166.003906 17.785156 166.0625 17.671875 166.0625 C 17.554688 166.0625 17.496094 166.003906 17.496094 165.890625 C 17.496094 165.773438 17.554688 165.714844 17.671875 165.714844 C 17.785156 165.714844 17.84375 165.773438 17.84375 165.890625 Z M 17.84375 165.890625"/><path fill="#382317" d="M 21.171875 168.910156 C 21.171875 168.992188 21.140625 169.0625 21.082031 169.121094 C 21.023438 169.179688 20.953125 169.207031 20.871094 169.207031 C 20.789062 169.207031 20.71875 169.179688 20.660156 169.121094 C 20.605469 169.0625 20.574219 168.992188 20.574219 168.910156 C 20.574219 168.828125 20.605469 168.757812 20.660156 168.699219 C 20.71875 168.640625 20.789062 168.609375 20.871094 168.609375 C 20.953125 168.609375 21.023438 168.640625 21.082031 168.699219 C 21.140625 168.757812 21.171875 168.828125 21.171875 168.910156 Z M 21.171875 168.910156"/><path fill="#382317" d="M 21.171875 163.144531 C 21.171875 163.292969 21.097656 163.367188 20.945312 163.367188 C 20.796875 163.367188 20.722656 163.292969 20.722656 163.144531 C 20.722656 162.992188 20.796875 162.917969 20.945312 162.917969 C 21.097656 162.917969 21.171875 162.992188 21.171875 163.144531 Z M 21.171875 163.144531"/><path fill="#382317" d="M 22.808594 146.941406 C 22.808594 147.007812 22.777344 147.042969 22.710938 147.042969 C 22.644531 147.042969 22.609375 147.007812 22.609375 146.941406 C 22.609375 146.875 22.644531 146.84375 22.710938 146.84375 C 22.777344 146.84375 22.808594 146.875 22.808594 146.941406 Z M 22.808594 146.941406"/><path fill="#382317" d="M 36.214844 132.640625 C 36.214844 132.714844 36.1875 132.78125 36.132812 132.832031 C 36.078125 132.886719 36.015625 132.914062 35.941406 132.914062 C 35.863281 132.914062 35.800781 132.886719 35.746094 132.832031 C 35.695312 132.78125 35.667969 132.714844 35.667969 132.640625 C 35.667969 132.5625 35.695312 132.5 35.746094 132.445312 C 35.800781 132.390625 35.863281 132.363281 35.941406 132.363281 C 36.015625 132.363281 36.078125 132.390625 36.132812 132.445312 C 36.1875 132.5 36.214844 132.5625 36.214844 132.640625 Z M 36.214844 132.640625"/><g fill="#382317"><use x="161.598" y="182.471" xmlns:xlink="http://www.w3.org/1999/xlink" xlink:href="#c" xlink:type="simple" xlink:actuate="onLoad" xlink:show="embed"/></g><g fill="#382317"><use x="196.976" y="182.471" xmlns:xlink="http://www.w3.org/1999/xlink" xlink:href="#d" xlink:type="simple" xlink:actuate="onLoad" xlink:show="embed"/></g><g fill="#382317"><use x="246.04" y="182.471" xmlns:xlink="http://www.w3.org/1999/xlink" xlink:href="#e" xlink:type="simple" xlink:actuate="onLoad" xlink:show="embed"/></g><g fill="#382317"><use x="286.232" y="182.471" xmlns:xlink="http://www.w3.org/1999/xlink" xlink:href="#f" xlink:type="simple" xlink:actuate="onLoad" xlink:show="embed"/></g><g fill="#382317"><use x="331.817" y="182.471" xmlns:xlink="http://www.w3.org/1999/xlink" xlink:href="#c" xlink:type="simple" xlink:actuate="onLoad" xlink:show="embed"/></g><g fill="#382317"><use x="82.042" y="182.471" xmlns:xlink="http://www.w3.org/1999/xlink" xlink:href="#g" xlink:type="simple" xlink:actuate="onLoad" xlink:show="embed"/></g><g fill="#382317"><use x="125.539" y="182.471" xmlns:xlink="http://www.w3.org/1999/xlink" xlink:href="#h" xlink:type="simple" xlink:actuate="onLoad" xlink:show="embed"/></g></svg>