<svg xmlns="http://www.w3.org/2000/svg" width="375" viewBox="0 0 375 375" height="375" version="1.0"><defs><clipPath id="a"><path d="M 70 61.039062 L 318.199219 61.039062 L 318.199219 309 L 70 309 Z M 70 61.039062"/></clipPath></defs><g clip-path="url(#a)"><path fill="#FFFBEC" d="M 318.199219 184.992188 C 318.199219 187.019531 318.152344 189.046875 318.050781 191.074219 C 317.953125 193.101562 317.804688 195.121094 317.605469 197.140625 C 317.40625 199.160156 317.15625 201.171875 316.859375 203.179688 C 316.5625 205.183594 316.214844 207.183594 315.820312 209.171875 C 315.425781 211.160156 314.980469 213.140625 314.488281 215.105469 C 313.996094 217.074219 313.457031 219.027344 312.867188 220.96875 C 312.277344 222.910156 311.644531 224.835938 310.960938 226.746094 C 310.277344 228.65625 309.546875 230.546875 308.773438 232.421875 C 307.996094 234.296875 307.175781 236.148438 306.308594 237.984375 C 305.441406 239.816406 304.53125 241.628906 303.574219 243.417969 C 302.621094 245.207031 301.621094 246.96875 300.578125 248.710938 C 299.539062 250.449219 298.453125 252.164062 297.328125 253.847656 C 296.199219 255.535156 295.035156 257.195312 293.828125 258.824219 C 292.617188 260.453125 291.371094 262.050781 290.085938 263.617188 C 288.800781 265.1875 287.476562 266.722656 286.117188 268.226562 C 284.753906 269.726562 283.355469 271.195312 281.921875 272.628906 C 280.492188 274.066406 279.023438 275.464844 277.519531 276.824219 C 276.019531 278.1875 274.484375 279.511719 272.917969 280.796875 C 271.351562 282.085938 269.753906 283.332031 268.125 284.542969 C 266.496094 285.75 264.839844 286.917969 263.15625 288.042969 C 261.46875 289.171875 259.757812 290.253906 258.019531 291.296875 C 256.28125 292.339844 254.515625 293.339844 252.730469 294.296875 C 250.941406 295.253906 249.132812 296.164062 247.296875 297.03125 C 245.464844 297.898438 243.613281 298.722656 241.742188 299.496094 C 239.867188 300.273438 237.976562 301.003906 236.070312 301.6875 C 234.160156 302.371094 232.238281 303.003906 230.296875 303.59375 C 228.355469 304.183594 226.402344 304.722656 224.4375 305.21875 C 222.472656 305.710938 220.492188 306.152344 218.507812 306.550781 C 216.519531 306.945312 214.519531 307.292969 212.515625 307.589844 C 210.511719 307.886719 208.5 308.136719 206.484375 308.335938 C 204.464844 308.535156 202.445312 308.683594 200.417969 308.78125 C 198.394531 308.882812 196.371094 308.929688 194.34375 308.929688 C 192.316406 308.929688 190.289062 308.882812 188.265625 308.78125 C 186.242188 308.683594 184.21875 308.535156 182.203125 308.335938 C 180.183594 308.136719 178.171875 307.886719 176.167969 307.589844 C 174.164062 307.292969 172.167969 306.945312 170.179688 306.550781 C 168.191406 306.152344 166.214844 305.710938 164.246094 305.21875 C 162.28125 304.722656 160.328125 304.183594 158.386719 303.59375 C 156.449219 303.003906 154.523438 302.371094 152.617188 301.6875 C 150.707031 301.003906 148.816406 300.273438 146.945312 299.496094 C 145.070312 298.722656 143.21875 297.898438 141.386719 297.03125 C 139.554688 296.164062 137.742188 295.253906 135.957031 294.296875 C 134.167969 293.339844 132.40625 292.339844 130.667969 291.296875 C 128.925781 290.253906 127.214844 289.171875 125.53125 288.042969 C 123.84375 286.917969 122.1875 285.75 120.558594 284.542969 C 118.933594 283.332031 117.335938 282.085938 115.765625 280.796875 C 114.199219 279.511719 112.664062 278.1875 111.164062 276.824219 C 109.664062 275.464844 108.195312 274.066406 106.761719 272.628906 C 105.328125 271.195312 103.929688 269.726562 102.570312 268.226562 C 101.207031 266.722656 99.882812 265.1875 98.597656 263.617188 C 97.3125 262.050781 96.066406 260.453125 94.859375 258.824219 C 93.652344 257.195312 92.484375 255.535156 91.359375 253.847656 C 90.230469 252.164062 89.148438 250.449219 88.105469 248.710938 C 87.0625 246.96875 86.0625 245.207031 85.109375 243.417969 C 84.152344 241.628906 83.242188 239.816406 82.375 237.984375 C 81.507812 236.148438 80.6875 234.296875 79.910156 232.421875 C 79.136719 230.546875 78.40625 228.65625 77.722656 226.746094 C 77.042969 224.835938 76.40625 222.910156 75.816406 220.96875 C 75.230469 219.027344 74.6875 217.074219 74.195312 215.105469 C 73.703125 213.140625 73.257812 211.160156 72.863281 209.171875 C 72.46875 207.183594 72.121094 205.183594 71.824219 203.179688 C 71.527344 201.171875 71.277344 199.160156 71.082031 197.140625 C 70.882812 195.121094 70.734375 193.101562 70.632812 191.074219 C 70.535156 189.046875 70.484375 187.019531 70.484375 184.992188 C 70.484375 182.964844 70.535156 180.9375 70.632812 178.910156 C 70.734375 176.886719 70.882812 174.863281 71.082031 172.84375 C 71.277344 170.824219 71.527344 168.8125 71.824219 166.808594 C 72.121094 164.800781 72.46875 162.800781 72.863281 160.8125 C 73.257812 158.824219 73.703125 156.84375 74.195312 154.878906 C 74.6875 152.910156 75.230469 150.957031 75.816406 149.015625 C 76.40625 147.074219 77.042969 145.148438 77.722656 143.238281 C 78.40625 141.328125 79.136719 139.4375 79.910156 137.5625 C 80.6875 135.6875 81.507812 133.835938 82.375 132 C 83.242188 130.167969 84.152344 128.355469 85.109375 126.566406 C 86.0625 124.777344 87.0625 123.015625 88.105469 121.273438 C 89.148438 119.535156 90.230469 117.820312 91.359375 116.136719 C 92.484375 114.449219 93.652344 112.792969 94.859375 111.160156 C 96.066406 109.53125 97.3125 107.933594 98.597656 106.367188 C 99.882812 104.796875 101.207031 103.261719 102.570312 101.761719 C 103.929688 100.257812 105.328125 98.789062 106.761719 97.355469 C 108.195312 95.921875 109.664062 94.523438 111.164062 93.160156 C 112.664062 91.796875 114.199219 90.472656 115.765625 89.1875 C 117.335938 87.898438 118.933594 86.652344 120.558594 85.445312 C 122.1875 84.234375 123.84375 83.066406 125.53125 81.941406 C 127.214844 80.8125 128.925781 79.730469 130.667969 78.6875 C 132.40625 77.644531 134.167969 76.644531 135.957031 75.6875 C 137.742188 74.730469 139.554688 73.820312 141.386719 72.953125 C 143.21875 72.085938 145.070312 71.265625 146.945312 70.488281 C 148.816406 69.710938 150.707031 68.980469 152.617188 68.296875 C 154.523438 67.613281 156.449219 66.980469 158.386719 66.390625 C 160.328125 65.800781 162.28125 65.261719 164.246094 64.769531 C 166.214844 64.273438 168.191406 63.832031 170.179688 63.433594 C 172.167969 63.039062 174.164062 62.691406 176.167969 62.394531 C 178.171875 62.097656 180.183594 61.847656 182.203125 61.648438 C 184.21875 61.453125 186.242188 61.300781 188.265625 61.203125 C 190.289062 61.101562 192.316406 61.054688 194.34375 61.054688 C 196.371094 61.054688 198.394531 61.101562 200.417969 61.203125 C 202.445312 61.300781 204.464844 61.453125 206.484375 61.648438 C 208.5 61.847656 210.511719 62.097656 212.515625 62.394531 C 214.519531 62.691406 216.519531 63.039062 218.507812 63.433594 C 220.492188 63.832031 222.472656 64.273438 224.4375 64.769531 C 226.402344 65.261719 228.355469 65.800781 230.296875 66.390625 C 232.238281 66.980469 234.160156 67.613281 236.070312 68.296875 C 237.976562 68.980469 239.867188 69.710938 241.742188 70.488281 C 243.613281 71.265625 245.464844 72.085938 247.296875 72.953125 C 249.132812 73.820312 250.941406 74.730469 252.730469 75.6875 C 254.515625 76.644531 256.28125 77.644531 258.019531 78.6875 C 259.757812 79.730469 261.46875 80.8125 263.15625 81.941406 C 264.839844 83.066406 266.496094 84.234375 268.125 85.445312 C 269.753906 86.652344 271.351562 87.898438 272.917969 89.1875 C 274.484375 90.472656 276.019531 91.796875 277.519531 93.160156 C 279.023438 94.523438 280.492188 95.921875 281.921875 97.355469 C 283.355469 98.789062 284.753906 100.257812 286.117188 101.761719 C 287.476562 103.261719 288.800781 104.796875 290.085938 106.367188 C 291.371094 107.933594 292.617188 109.53125 293.828125 111.160156 C 295.035156 112.792969 296.199219 114.449219 297.328125 116.136719 C 298.453125 117.820312 299.539062 119.535156 300.578125 121.273438 C 301.621094 123.015625 302.621094 124.777344 303.574219 126.566406 C 304.53125 128.355469 305.441406 130.167969 306.308594 132 C 307.175781 133.835938 307.996094 135.6875 308.773438 137.5625 C 309.546875 139.4375 310.277344 141.328125 310.960938 143.238281 C 311.644531 145.148438 312.277344 147.074219 312.867188 149.015625 C 313.457031 150.957031 313.996094 152.910156 314.488281 154.878906 C 314.980469 156.84375 315.425781 158.824219 315.820312 160.8125 C 316.214844 162.800781 316.5625 164.800781 316.859375 166.808594 C 317.15625 168.8125 317.40625 170.824219 317.605469 172.84375 C 317.804688 174.863281 317.953125 176.886719 318.050781 178.910156 C 318.152344 180.9375 318.199219 182.964844 318.199219 184.992188 Z M 318.199219 184.992188"/></g><path fill="#D7B086" d="M 299.160156 185.078125 C 299.160156 186.78125 299.117188 188.484375 299.035156 190.1875 C 298.949219 191.886719 298.824219 193.585938 298.65625 195.28125 C 298.492188 196.980469 298.28125 198.667969 298.03125 200.355469 C 297.78125 202.039062 297.492188 203.71875 297.160156 205.390625 C 296.828125 207.0625 296.453125 208.722656 296.039062 210.375 C 295.628906 212.027344 295.171875 213.667969 294.679688 215.300781 C 294.183594 216.929688 293.652344 218.546875 293.078125 220.152344 C 292.503906 221.757812 291.890625 223.347656 291.238281 224.921875 C 290.585938 226.496094 289.898438 228.050781 289.167969 229.59375 C 288.441406 231.132812 287.675781 232.652344 286.875 234.15625 C 286.070312 235.660156 285.230469 237.140625 284.355469 238.601562 C 283.480469 240.0625 282.570312 241.503906 281.625 242.917969 C 280.679688 244.335938 279.699219 245.730469 278.683594 247.097656 C 277.667969 248.464844 276.621094 249.808594 275.542969 251.125 C 274.460938 252.445312 273.351562 253.734375 272.207031 254.996094 C 271.0625 256.257812 269.890625 257.492188 268.683594 258.695312 C 267.480469 259.902344 266.25 261.074219 264.988281 262.21875 C 263.726562 263.363281 262.4375 264.476562 261.121094 265.558594 C 259.804688 266.640625 258.460938 267.6875 257.09375 268.703125 C 255.726562 269.71875 254.335938 270.699219 252.917969 271.644531 C 251.503906 272.589844 250.066406 273.503906 248.605469 274.378906 C 247.144531 275.253906 245.664062 276.09375 244.160156 276.898438 C 242.660156 277.699219 241.136719 278.464844 239.597656 279.195312 C 238.058594 279.921875 236.503906 280.613281 234.929688 281.265625 C 233.355469 281.917969 231.769531 282.53125 230.164062 283.105469 C 228.5625 283.679688 226.945312 284.210938 225.316406 284.707031 C 223.6875 285.203125 222.046875 285.65625 220.394531 286.070312 C 218.742188 286.484375 217.082031 286.859375 215.414062 287.191406 C 213.742188 287.523438 212.066406 287.8125 210.382812 288.0625 C 208.695312 288.3125 207.007812 288.523438 205.3125 288.6875 C 203.617188 288.855469 201.921875 288.980469 200.21875 289.066406 C 198.519531 289.148438 196.816406 289.191406 195.113281 289.191406 C 193.410156 289.191406 191.710938 289.148438 190.007812 289.066406 C 188.308594 288.980469 186.609375 288.855469 184.917969 288.6875 C 183.222656 288.523438 181.53125 288.3125 179.847656 288.0625 C 178.164062 287.8125 176.484375 287.523438 174.816406 287.191406 C 173.144531 286.859375 171.484375 286.484375 169.832031 286.070312 C 168.183594 285.65625 166.542969 285.203125 164.910156 284.707031 C 163.28125 284.210938 161.667969 283.679688 160.0625 283.105469 C 158.460938 282.53125 156.871094 281.917969 155.296875 281.265625 C 153.726562 280.613281 152.167969 279.921875 150.628906 279.195312 C 149.089844 278.464844 147.570312 277.699219 146.066406 276.898438 C 144.566406 276.09375 143.085938 275.253906 141.625 274.378906 C 140.164062 273.503906 138.726562 272.589844 137.308594 271.644531 C 135.894531 270.699219 134.503906 269.71875 133.136719 268.703125 C 131.765625 267.6875 130.425781 266.640625 129.109375 265.558594 C 127.792969 264.476562 126.503906 263.363281 125.242188 262.21875 C 123.980469 261.074219 122.746094 259.902344 121.542969 258.695312 C 120.339844 257.492188 119.164062 256.257812 118.023438 254.996094 C 116.878906 253.734375 115.765625 252.441406 114.6875 251.125 C 113.605469 249.808594 112.558594 248.464844 111.542969 247.097656 C 110.53125 245.730469 109.550781 244.335938 108.605469 242.917969 C 107.660156 241.503906 106.746094 240.0625 105.871094 238.601562 C 104.996094 237.140625 104.15625 235.660156 103.355469 234.15625 C 102.550781 232.652344 101.789062 231.132812 101.058594 229.59375 C 100.332031 228.050781 99.640625 226.496094 98.988281 224.921875 C 98.339844 223.347656 97.726562 221.757812 97.152344 220.152344 C 96.578125 218.546875 96.042969 216.929688 95.550781 215.300781 C 95.054688 213.667969 94.601562 212.027344 94.1875 210.375 C 93.773438 208.722656 93.402344 207.0625 93.070312 205.390625 C 92.738281 203.71875 92.445312 202.039062 92.195312 200.355469 C 91.945312 198.667969 91.738281 196.980469 91.570312 195.28125 C 91.402344 193.585938 91.277344 191.886719 91.195312 190.1875 C 91.113281 188.484375 91.070312 186.78125 91.070312 185.078125 C 91.070312 183.375 91.113281 181.671875 91.195312 179.96875 C 91.277344 178.269531 91.402344 176.570312 91.570312 174.875 C 91.738281 173.175781 91.945312 171.488281 92.195312 169.800781 C 92.445312 168.117188 92.738281 166.4375 93.070312 164.765625 C 93.402344 163.097656 93.773438 161.433594 94.1875 159.78125 C 94.601562 158.128906 95.054688 156.488281 95.550781 154.855469 C 96.042969 153.226562 96.578125 151.609375 97.152344 150.003906 C 97.726562 148.398438 98.339844 146.808594 98.988281 145.234375 C 99.640625 143.660156 100.332031 142.105469 101.058594 140.566406 C 101.789062 139.023438 102.550781 137.503906 103.355469 136 C 104.15625 134.496094 104.996094 133.015625 105.871094 131.554688 C 106.746094 130.09375 107.660156 128.652344 108.605469 127.238281 C 109.550781 125.820312 110.53125 124.425781 111.542969 123.058594 C 112.558594 121.691406 113.605469 120.347656 114.6875 119.03125 C 115.765625 117.714844 116.878906 116.421875 118.023438 115.160156 C 119.164062 113.898438 120.339844 112.664062 121.542969 111.460938 C 122.746094 110.253906 123.980469 109.082031 125.242188 107.9375 C 126.503906 106.792969 127.792969 105.679688 129.109375 104.597656 C 130.425781 103.515625 131.765625 102.46875 133.136719 101.453125 C 134.503906 100.441406 135.894531 99.457031 137.308594 98.511719 C 138.726562 97.566406 140.164062 96.652344 141.625 95.777344 C 143.085938 94.902344 144.566406 94.0625 146.066406 93.257812 C 147.570312 92.457031 149.089844 91.691406 150.628906 90.960938 C 152.167969 90.234375 153.726562 89.542969 155.296875 88.890625 C 156.871094 88.238281 158.460938 87.625 160.0625 87.050781 C 161.667969 86.476562 163.28125 85.945312 164.910156 85.449219 C 166.542969 84.953125 168.183594 84.5 169.832031 84.085938 C 171.484375 83.671875 173.144531 83.300781 174.816406 82.964844 C 176.484375 82.632812 178.164062 82.34375 179.847656 82.09375 C 181.53125 81.84375 183.222656 81.632812 184.917969 81.46875 C 186.609375 81.300781 188.308594 81.175781 190.007812 81.089844 C 191.710938 81.007812 193.410156 80.964844 195.113281 80.964844 C 196.816406 80.964844 198.519531 81.007812 200.21875 81.089844 C 201.921875 81.175781 203.617188 81.300781 205.3125 81.46875 C 207.007812 81.632812 208.695312 81.84375 210.382812 82.09375 C 212.066406 82.34375 213.742188 82.632812 215.414062 82.964844 C 217.082031 83.300781 218.742188 83.671875 220.394531 84.085938 C 222.046875 84.5 223.6875 84.953125 225.316406 85.449219 C 226.945312 85.945312 228.5625 86.476562 230.164062 87.050781 C 231.769531 87.625 233.355469 88.238281 234.929688 88.890625 C 236.503906 89.542969 238.058594 90.234375 239.597656 90.960938 C 241.136719 91.691406 242.660156 92.457031 244.160156 93.257812 C 245.664062 94.0625 247.144531 94.902344 248.605469 95.777344 C 250.066406 96.652344 251.503906 97.566406 252.917969 98.511719 C 254.335938 99.457031 255.726562 100.441406 257.09375 101.453125 C 258.460938 102.46875 259.804688 103.515625 261.121094 104.597656 C 262.4375 105.679688 263.726562 106.792969 264.988281 107.9375 C 266.25 109.082031 267.480469 110.253906 268.683594 111.460938 C 269.890625 112.664062 271.0625 113.898438 272.207031 115.160156 C 273.351562 116.421875 274.460938 117.714844 275.542969 119.03125 C 276.621094 120.347656 277.667969 121.691406 278.683594 123.058594 C 279.699219 124.425781 280.679688 125.820312 281.625 127.238281 C 282.570312 128.652344 283.480469 130.09375 284.355469 131.554688 C 285.230469 133.015625 286.070312 134.496094 286.875 136 C 287.675781 137.503906 288.441406 139.023438 289.167969 140.566406 C 289.898438 142.105469 290.585938 143.660156 291.238281 145.234375 C 291.890625 146.808594 292.503906 148.398438 293.078125 150.003906 C 293.652344 151.609375 294.183594 153.226562 294.679688 154.855469 C 295.171875 156.488281 295.628906 158.128906 296.039062 159.78125 C 296.453125 161.433594 296.828125 163.097656 297.160156 164.765625 C 297.492188 166.4375 297.78125 168.117188 298.03125 169.800781 C 298.28125 171.488281 298.492188 173.175781 298.65625 174.875 C 298.824219 176.570312 298.949219 178.269531 299.035156 179.96875 C 299.117188 181.671875 299.160156 183.375 299.160156 185.078125 Z M 299.160156 185.078125"/><path fill="#FFFBEC" d="M 64.144531 309.128906 L 61.980469 307.171875 C 56.855469 302.527344 56.457031 294.53125 61.097656 289.402344 L 89.597656 257.898438 C 94.238281 252.769531 102.226562 252.371094 107.351562 257.015625 L 109.515625 258.972656 C 114.640625 263.617188 115.039062 271.609375 110.398438 276.738281 L 81.898438 308.246094 C 77.257812 313.375 69.269531 313.773438 64.144531 309.128906 Z M 64.144531 309.128906"/><path fill="#382317" d="M 178.046875 109.632812 C 179.542969 113.035156 182.15625 118.972656 179.761719 123.023438 C 177.136719 127.457031 170.65625 125.980469 160.375 128 C 154.167969 129.222656 139.144531 132.175781 132.585938 141.90625 C 126.242188 151.3125 134.203125 157.582031 128.640625 172.460938 C 123.648438 185.808594 115.589844 185.183594 114.230469 195.808594 C 112.992188 205.480469 119.480469 207.511719 121.433594 223.445312 C 122.914062 235.5 119.515625 236.949219 121.433594 244.558594 C 125.058594 258.9375 140.433594 266.660156 149.738281 271.335938 C 154.019531 273.488281 171.855469 282.003906 197.429688 280.777344 C 207.835938 280.28125 234.113281 279.019531 257.472656 258.976562 C 260.101562 256.722656 289.464844 230.675781 289.039062 189.113281 C 288.789062 164.820312 278.492188 147.527344 274.628906 141.21875 C 262.800781 121.917969 247.3125 112.074219 232.941406 102.9375 C 217.667969 93.230469 208.433594 90.933594 205.320312 90.234375 C 187.550781 86.246094 168.65625 89.316406 167.582031 94.699219 C 166.910156 98.054688 173.6875 99.730469 178.046875 109.632812 Z M 178.046875 109.632812"/><path fill="#382317" d="M 153.855469 98.820312 C 153.855469 99.070312 153.808594 99.308594 153.714844 99.542969 C 153.617188 99.773438 153.480469 99.976562 153.304688 100.152344 C 153.128906 100.332031 152.921875 100.46875 152.691406 100.5625 C 152.460938 100.660156 152.21875 100.707031 151.96875 100.707031 C 151.71875 100.707031 151.480469 100.660156 151.246094 100.5625 C 151.015625 100.46875 150.8125 100.332031 150.636719 100.152344 C 150.457031 99.976562 150.320312 99.773438 150.226562 99.542969 C 150.128906 99.308594 150.082031 99.070312 150.082031 98.820312 C 150.082031 98.566406 150.128906 98.328125 150.226562 98.097656 C 150.320312 97.863281 150.457031 97.660156 150.636719 97.484375 C 150.8125 97.304688 151.015625 97.171875 151.246094 97.074219 C 151.480469 96.976562 151.71875 96.929688 151.96875 96.929688 C 152.21875 96.929688 152.460938 96.976562 152.691406 97.074219 C 152.921875 97.171875 153.128906 97.304688 153.304688 97.484375 C 153.480469 97.660156 153.617188 97.863281 153.714844 98.097656 C 153.808594 98.328125 153.855469 98.566406 153.855469 98.820312 Z M 153.855469 98.820312"/><path fill="#382317" d="M 153 106.972656 C 153 107.167969 152.960938 107.351562 152.886719 107.53125 C 152.8125 107.710938 152.707031 107.867188 152.570312 108.003906 C 152.433594 108.140625 152.277344 108.246094 152.097656 108.320312 C 151.921875 108.394531 151.734375 108.433594 151.539062 108.433594 C 151.347656 108.433594 151.160156 108.394531 150.984375 108.320312 C 150.804688 108.246094 150.648438 108.140625 150.511719 108.003906 C 150.371094 107.867188 150.269531 107.710938 150.195312 107.53125 C 150.121094 107.351562 150.082031 107.167969 150.082031 106.972656 C 150.082031 106.777344 150.121094 106.59375 150.195312 106.414062 C 150.269531 106.234375 150.371094 106.078125 150.511719 105.941406 C 150.648438 105.804688 150.804688 105.699219 150.984375 105.625 C 151.160156 105.550781 151.347656 105.511719 151.539062 105.511719 C 151.734375 105.511719 151.921875 105.550781 152.097656 105.625 C 152.277344 105.699219 152.433594 105.804688 152.570312 105.941406 C 152.707031 106.078125 152.8125 106.234375 152.886719 106.414062 C 152.960938 106.59375 153 106.777344 153 106.972656 Z M 153 106.972656"/><path fill="#382317" d="M 139.273438 110.835938 C 139.273438 111.039062 139.234375 111.238281 139.15625 111.425781 C 139.078125 111.617188 138.96875 111.78125 138.824219 111.925781 C 138.679688 112.070312 138.511719 112.183594 138.320312 112.261719 C 138.132812 112.339844 137.9375 112.378906 137.730469 112.378906 C 137.527344 112.378906 137.328125 112.339844 137.140625 112.261719 C 136.949219 112.183594 136.785156 112.070312 136.640625 111.925781 C 136.496094 111.78125 136.382812 111.617188 136.304688 111.425781 C 136.226562 111.238281 136.1875 111.039062 136.1875 110.835938 C 136.1875 110.628906 136.226562 110.433594 136.304688 110.242188 C 136.382812 110.054688 136.496094 109.886719 136.640625 109.742188 C 136.785156 109.597656 136.949219 109.484375 137.140625 109.40625 C 137.328125 109.328125 137.527344 109.289062 137.730469 109.289062 C 137.9375 109.289062 138.132812 109.328125 138.320312 109.40625 C 138.511719 109.484375 138.679688 109.597656 138.824219 109.742188 C 138.96875 109.886719 139.078125 110.054688 139.15625 110.242188 C 139.234375 110.433594 139.273438 110.628906 139.273438 110.835938 Z M 139.273438 110.835938"/><path fill="#382317" d="M 143.5625 120.792969 C 143.5625 120.996094 143.523438 121.191406 143.445312 121.382812 C 143.367188 121.570312 143.257812 121.738281 143.113281 121.882812 C 142.96875 122.027344 142.800781 122.140625 142.609375 122.21875 C 142.421875 122.296875 142.226562 122.335938 142.019531 122.335938 C 141.816406 122.335938 141.617188 122.296875 141.429688 122.21875 C 141.238281 122.140625 141.074219 122.027344 140.929688 121.882812 C 140.785156 121.738281 140.671875 121.570312 140.59375 121.382812 C 140.515625 121.191406 140.476562 120.996094 140.476562 120.792969 C 140.476562 120.585938 140.515625 120.390625 140.59375 120.199219 C 140.671875 120.011719 140.785156 119.84375 140.929688 119.699219 C 141.074219 119.554688 141.238281 119.441406 141.429688 119.363281 C 141.617188 119.285156 141.816406 119.246094 142.019531 119.246094 C 142.226562 119.246094 142.421875 119.285156 142.609375 119.363281 C 142.800781 119.441406 142.96875 119.554688 143.113281 119.699219 C 143.257812 119.84375 143.367188 120.011719 143.445312 120.199219 C 143.523438 120.390625 143.5625 120.585938 143.5625 120.792969 Z M 143.5625 120.792969"/><path fill="#382317" d="M 169.8125 113.410156 C 169.8125 113.546875 169.785156 113.679688 169.734375 113.804688 C 169.679688 113.929688 169.605469 114.042969 169.507812 114.136719 C 169.414062 114.234375 169.300781 114.308594 169.175781 114.363281 C 169.050781 114.414062 168.917969 114.441406 168.78125 114.441406 C 168.644531 114.441406 168.515625 114.414062 168.386719 114.363281 C 168.261719 114.308594 168.148438 114.234375 168.054688 114.136719 C 167.957031 114.042969 167.882812 113.929688 167.832031 113.804688 C 167.777344 113.679688 167.753906 113.546875 167.753906 113.410156 C 167.753906 113.273438 167.777344 113.140625 167.832031 113.015625 C 167.882812 112.890625 167.957031 112.777344 168.054688 112.679688 C 168.148438 112.585938 168.261719 112.511719 168.386719 112.457031 C 168.515625 112.40625 168.644531 112.378906 168.78125 112.378906 C 168.917969 112.378906 169.050781 112.40625 169.175781 112.457031 C 169.300781 112.511719 169.414062 112.585938 169.507812 112.679688 C 169.605469 112.777344 169.679688 112.890625 169.734375 113.015625 C 169.785156 113.140625 169.8125 113.273438 169.8125 113.410156 Z M 169.8125 113.410156"/><path fill="#382317" d="M 154.542969 114.699219 C 154.542969 114.867188 154.511719 115.03125 154.445312 115.191406 C 154.378906 115.347656 154.285156 115.488281 154.167969 115.609375 C 154.046875 115.726562 153.90625 115.820312 153.75 115.886719 C 153.589844 115.953125 153.425781 115.984375 153.257812 115.984375 C 153.085938 115.984375 152.921875 115.953125 152.765625 115.886719 C 152.605469 115.820312 152.46875 115.726562 152.347656 115.609375 C 152.226562 115.488281 152.132812 115.347656 152.066406 115.191406 C 152.003906 115.03125 151.96875 114.867188 151.96875 114.699219 C 151.96875 114.527344 152.003906 114.363281 152.066406 114.203125 C 152.132812 114.046875 152.226562 113.90625 152.347656 113.785156 C 152.46875 113.667969 152.605469 113.574219 152.765625 113.507812 C 152.921875 113.441406 153.085938 113.410156 153.257812 113.410156 C 153.425781 113.410156 153.589844 113.441406 153.75 113.507812 C 153.90625 113.574219 154.046875 113.667969 154.167969 113.785156 C 154.285156 113.90625 154.378906 114.046875 154.445312 114.203125 C 154.511719 114.363281 154.542969 114.527344 154.542969 114.699219 Z M 154.542969 114.699219"/><path fill="#382317" d="M 146.480469 113.410156 C 146.480469 113.546875 146.453125 113.679688 146.402344 113.804688 C 146.347656 113.929688 146.273438 114.042969 146.179688 114.136719 C 146.082031 114.234375 145.972656 114.308594 145.84375 114.363281 C 145.71875 114.414062 145.585938 114.441406 145.449219 114.441406 C 145.3125 114.441406 145.183594 114.414062 145.058594 114.363281 C 144.929688 114.308594 144.820312 114.234375 144.722656 114.136719 C 144.625 114.042969 144.550781 113.929688 144.5 113.804688 C 144.449219 113.679688 144.421875 113.546875 144.421875 113.410156 C 144.421875 113.273438 144.449219 113.140625 144.5 113.015625 C 144.550781 112.890625 144.625 112.777344 144.722656 112.679688 C 144.820312 112.585938 144.929688 112.511719 145.058594 112.457031 C 145.183594 112.40625 145.3125 112.378906 145.449219 112.378906 C 145.585938 112.378906 145.71875 112.40625 145.84375 112.457031 C 145.972656 112.511719 146.082031 112.585938 146.179688 112.679688 C 146.273438 112.777344 146.347656 112.890625 146.402344 113.015625 C 146.453125 113.140625 146.480469 113.273438 146.480469 113.410156 Z M 146.480469 113.410156"/><path fill="#382317" d="M 165.695312 101.824219 C 165.695312 101.972656 165.664062 102.113281 165.609375 102.25 C 165.550781 102.386719 165.472656 102.507812 165.367188 102.613281 C 165.261719 102.714844 165.140625 102.796875 165.003906 102.855469 C 164.867188 102.910156 164.726562 102.9375 164.578125 102.9375 C 164.429688 102.9375 164.289062 102.910156 164.152344 102.855469 C 164.015625 102.796875 163.894531 102.714844 163.789062 102.613281 C 163.6875 102.507812 163.605469 102.386719 163.546875 102.25 C 163.492188 102.113281 163.464844 101.972656 163.464844 101.824219 C 163.464844 101.675781 163.492188 101.53125 163.546875 101.394531 C 163.605469 101.257812 163.6875 101.136719 163.789062 101.035156 C 163.894531 100.929688 164.015625 100.847656 164.152344 100.792969 C 164.289062 100.734375 164.429688 100.707031 164.578125 100.707031 C 164.726562 100.707031 164.867188 100.734375 165.003906 100.792969 C 165.140625 100.847656 165.261719 100.929688 165.367188 101.035156 C 165.472656 101.136719 165.550781 101.257812 165.609375 101.394531 C 165.664062 101.53125 165.695312 101.675781 165.695312 101.824219 Z M 165.695312 101.824219"/><path fill="#382317" d="M 140.992188 101.910156 C 140.992188 102.144531 140.90625 102.347656 140.738281 102.515625 C 140.570312 102.683594 140.371094 102.765625 140.132812 102.765625 C 139.894531 102.765625 139.695312 102.683594 139.527344 102.515625 C 139.359375 102.347656 139.273438 102.144531 139.273438 101.910156 C 139.273438 101.671875 139.359375 101.46875 139.527344 101.300781 C 139.695312 101.132812 139.894531 101.050781 140.132812 101.050781 C 140.371094 101.050781 140.570312 101.132812 140.738281 101.300781 C 140.90625 101.46875 140.992188 101.671875 140.992188 101.910156 Z M 140.992188 101.910156"/><path fill="#382317" d="M 161.578125 108.089844 C 161.578125 108.246094 161.546875 108.402344 161.484375 108.546875 C 161.425781 108.695312 161.335938 108.824219 161.226562 108.9375 C 161.113281 109.050781 160.980469 109.136719 160.835938 109.199219 C 160.6875 109.257812 160.535156 109.289062 160.375 109.289062 C 160.214844 109.289062 160.0625 109.257812 159.917969 109.199219 C 159.769531 109.136719 159.640625 109.050781 159.527344 108.9375 C 159.414062 108.824219 159.328125 108.695312 159.265625 108.546875 C 159.207031 108.402344 159.175781 108.246094 159.175781 108.089844 C 159.175781 107.929688 159.207031 107.777344 159.265625 107.628906 C 159.328125 107.480469 159.414062 107.351562 159.527344 107.238281 C 159.640625 107.125 159.769531 107.039062 159.917969 106.976562 C 160.0625 106.917969 160.214844 106.886719 160.375 106.886719 C 160.535156 106.886719 160.6875 106.917969 160.835938 106.976562 C 160.980469 107.039062 161.113281 107.125 161.226562 107.238281 C 161.335938 107.351562 161.425781 107.480469 161.484375 107.628906 C 161.546875 107.777344 161.578125 107.929688 161.578125 108.089844 Z M 161.578125 108.089844"/><path fill="#382317" d="M 129.152344 118.214844 C 129.152344 118.511719 129.097656 118.796875 128.984375 119.070312 C 128.871094 119.34375 128.710938 119.585938 128.5 119.792969 C 128.292969 120.003906 128.050781 120.164062 127.777344 120.277344 C 127.503906 120.390625 127.21875 120.449219 126.921875 120.449219 C 126.628906 120.449219 126.34375 120.390625 126.070312 120.277344 C 125.796875 120.164062 125.554688 120.003906 125.347656 119.792969 C 125.136719 119.585938 124.976562 119.34375 124.863281 119.070312 C 124.75 118.796875 124.695312 118.511719 124.695312 118.214844 C 124.695312 117.921875 124.75 117.636719 124.863281 117.363281 C 124.976562 117.089844 125.136719 116.847656 125.347656 116.636719 C 125.554688 116.429688 125.796875 116.269531 126.070312 116.15625 C 126.34375 116.042969 126.628906 115.984375 126.921875 115.984375 C 127.21875 115.984375 127.503906 116.042969 127.777344 116.15625 C 128.050781 116.269531 128.292969 116.429688 128.5 116.636719 C 128.710938 116.847656 128.871094 117.089844 128.984375 117.363281 C 129.097656 117.636719 129.152344 117.921875 129.152344 118.214844 Z M 129.152344 118.214844"/><path fill="#382317" d="M 126.921875 129.289062 C 126.921875 129.4375 126.894531 129.578125 126.839844 129.714844 C 126.78125 129.851562 126.703125 129.972656 126.597656 130.078125 C 126.492188 130.183594 126.371094 130.261719 126.234375 130.320312 C 126.097656 130.375 125.957031 130.402344 125.808594 130.402344 C 125.660156 130.402344 125.519531 130.375 125.382812 130.320312 C 125.246094 130.261719 125.125 130.183594 125.019531 130.078125 C 124.914062 129.972656 124.835938 129.851562 124.777344 129.714844 C 124.722656 129.578125 124.695312 129.4375 124.695312 129.289062 C 124.695312 129.140625 124.722656 129 124.777344 128.863281 C 124.835938 128.726562 124.914062 128.605469 125.019531 128.5 C 125.125 128.394531 125.246094 128.3125 125.382812 128.257812 C 125.519531 128.199219 125.660156 128.171875 125.808594 128.171875 C 125.957031 128.171875 126.097656 128.199219 126.234375 128.257812 C 126.371094 128.3125 126.492188 128.394531 126.597656 128.5 C 126.703125 128.605469 126.78125 128.726562 126.839844 128.863281 C 126.894531 129 126.921875 129.140625 126.921875 129.289062 Z M 126.921875 129.289062"/><path fill="#382317" d="M 139.960938 128.515625 C 139.960938 128.765625 139.914062 129.007812 139.816406 129.238281 C 139.722656 129.46875 139.585938 129.675781 139.410156 129.851562 C 139.230469 130.027344 139.027344 130.164062 138.796875 130.261719 C 138.566406 130.355469 138.324219 130.402344 138.074219 130.402344 C 137.824219 130.402344 137.582031 130.355469 137.351562 130.261719 C 137.121094 130.164062 136.917969 130.027344 136.738281 129.851562 C 136.5625 129.675781 136.425781 129.46875 136.332031 129.238281 C 136.234375 129.007812 136.1875 128.765625 136.1875 128.515625 C 136.1875 128.265625 136.234375 128.023438 136.332031 127.792969 C 136.425781 127.5625 136.5625 127.359375 136.738281 127.179688 C 136.917969 127.003906 137.121094 126.867188 137.351562 126.769531 C 137.582031 126.675781 137.824219 126.628906 138.074219 126.628906 C 138.324219 126.628906 138.566406 126.675781 138.796875 126.769531 C 139.027344 126.867188 139.230469 127.003906 139.410156 127.179688 C 139.585938 127.359375 139.722656 127.5625 139.816406 127.792969 C 139.914062 128.023438 139.960938 128.265625 139.960938 128.515625 Z M 139.960938 128.515625"/><path fill="#382317" d="M 168.78125 122.335938 C 168.78125 122.542969 168.742188 122.738281 168.664062 122.925781 C 168.585938 123.117188 168.472656 123.285156 168.328125 123.429688 C 168.183594 123.574219 168.019531 123.683594 167.828125 123.761719 C 167.640625 123.84375 167.441406 123.882812 167.238281 123.882812 C 167.03125 123.882812 166.835938 123.84375 166.648438 123.761719 C 166.457031 123.683594 166.289062 123.574219 166.144531 123.429688 C 166 123.285156 165.890625 123.117188 165.8125 122.925781 C 165.734375 122.738281 165.695312 122.542969 165.695312 122.335938 C 165.695312 122.132812 165.734375 121.933594 165.8125 121.746094 C 165.890625 121.554688 166 121.386719 166.144531 121.242188 C 166.289062 121.097656 166.457031 120.988281 166.648438 120.910156 C 166.835938 120.832031 167.03125 120.792969 167.238281 120.792969 C 167.441406 120.792969 167.640625 120.832031 167.828125 120.910156 C 168.019531 120.988281 168.183594 121.097656 168.328125 121.242188 C 168.472656 121.386719 168.585938 121.554688 168.664062 121.746094 C 168.742188 121.933594 168.78125 122.132812 168.78125 122.335938 Z M 168.78125 122.335938"/><path fill="#382317" d="M 157.632812 118.730469 C 157.632812 118.875 157.582031 118.996094 157.480469 119.09375 C 157.378906 119.195312 157.257812 119.246094 157.117188 119.246094 C 156.972656 119.246094 156.851562 119.195312 156.753906 119.09375 C 156.652344 118.996094 156.601562 118.875 156.601562 118.730469 C 156.601562 118.589844 156.652344 118.46875 156.753906 118.367188 C 156.851562 118.265625 156.972656 118.214844 157.117188 118.214844 C 157.257812 118.214844 157.378906 118.265625 157.480469 118.367188 C 157.582031 118.46875 157.632812 118.589844 157.632812 118.730469 Z M 157.632812 118.730469"/><path fill="#382317" d="M 153 126.027344 C 153 126.238281 152.921875 126.421875 152.773438 126.574219 C 152.621094 126.722656 152.441406 126.800781 152.226562 126.800781 C 152.015625 126.800781 151.832031 126.722656 151.679688 126.574219 C 151.53125 126.421875 151.457031 126.238281 151.457031 126.027344 C 151.457031 125.8125 151.53125 125.632812 151.679688 125.480469 C 151.832031 125.328125 152.015625 125.253906 152.226562 125.253906 C 152.441406 125.253906 152.621094 125.328125 152.773438 125.480469 C 152.921875 125.632812 153 125.8125 153 126.027344 Z M 153 126.027344"/><path fill="#382317" d="M 114.058594 133.921875 C 114.058594 134.140625 114.015625 134.347656 113.933594 134.546875 C 113.851562 134.746094 113.734375 134.921875 113.578125 135.078125 C 113.425781 135.230469 113.25 135.347656 113.050781 135.429688 C 112.851562 135.511719 112.644531 135.554688 112.425781 135.554688 C 112.210938 135.554688 112.003906 135.511719 111.804688 135.429688 C 111.605469 135.347656 111.429688 135.230469 111.273438 135.078125 C 111.121094 134.921875 111.003906 134.746094 110.921875 134.546875 C 110.839844 134.347656 110.796875 134.140625 110.796875 133.921875 C 110.796875 133.707031 110.839844 133.5 110.921875 133.300781 C 111.003906 133.097656 111.121094 132.921875 111.273438 132.769531 C 111.429688 132.617188 111.605469 132.5 111.804688 132.417969 C 112.003906 132.332031 112.210938 132.292969 112.425781 132.292969 C 112.644531 132.292969 112.851562 132.332031 113.050781 132.417969 C 113.25 132.5 113.425781 132.617188 113.578125 132.769531 C 113.734375 132.921875 113.851562 133.097656 113.933594 133.300781 C 114.015625 133.5 114.058594 133.707031 114.058594 133.921875 Z M 114.058594 133.921875"/><path fill="#382317" d="M 121.605469 142.851562 C 121.605469 143.109375 121.511719 143.332031 121.328125 143.515625 C 121.144531 143.703125 120.921875 143.792969 120.660156 143.792969 C 120.402344 143.792969 120.179688 143.703125 119.996094 143.515625 C 119.8125 143.332031 119.71875 143.109375 119.71875 142.851562 C 119.71875 142.589844 119.8125 142.367188 119.996094 142.183594 C 120.179688 141.996094 120.402344 141.90625 120.660156 141.90625 C 120.921875 141.90625 121.144531 141.996094 121.328125 142.183594 C 121.511719 142.367188 121.605469 142.589844 121.605469 142.851562 Z M 121.605469 142.851562"/><path fill="#382317" d="M 122.292969 134.695312 C 122.292969 134.933594 122.207031 135.136719 122.039062 135.300781 C 121.871094 135.46875 121.671875 135.554688 121.433594 135.554688 C 121.195312 135.554688 120.996094 135.46875 120.828125 135.300781 C 120.660156 135.136719 120.578125 134.933594 120.578125 134.695312 C 120.578125 134.457031 120.660156 134.257812 120.828125 134.089844 C 120.996094 133.921875 121.195312 133.835938 121.433594 133.835938 C 121.671875 133.835938 121.871094 133.921875 122.039062 134.089844 C 122.207031 134.257812 122.292969 134.457031 122.292969 134.695312 Z M 122.292969 134.695312"/><path fill="#382317" d="M 108.226562 146.710938 C 108.226562 146.902344 108.15625 147.0625 108.023438 147.199219 C 107.890625 147.332031 107.726562 147.398438 107.539062 147.398438 C 107.347656 147.398438 107.1875 147.332031 107.054688 147.199219 C 106.917969 147.0625 106.851562 146.902344 106.851562 146.710938 C 106.851562 146.523438 106.917969 146.359375 107.054688 146.226562 C 107.1875 146.09375 107.347656 146.023438 107.539062 146.023438 C 107.726562 146.023438 107.890625 146.09375 108.023438 146.226562 C 108.15625 146.359375 108.226562 146.523438 108.226562 146.710938 Z M 108.226562 146.710938"/><path fill="#382317" d="M 112.511719 155.722656 C 112.511719 155.917969 112.476562 156.105469 112.402344 156.28125 C 112.328125 156.460938 112.222656 156.617188 112.085938 156.757812 C 111.949219 156.894531 111.792969 157 111.613281 157.070312 C 111.433594 157.144531 111.25 157.183594 111.054688 157.183594 C 110.863281 157.183594 110.675781 157.144531 110.496094 157.070312 C 110.320312 157 110.160156 156.894531 110.023438 156.757812 C 109.886719 156.617188 109.78125 156.460938 109.707031 156.28125 C 109.632812 156.105469 109.597656 155.917969 109.597656 155.722656 C 109.597656 155.53125 109.632812 155.34375 109.707031 155.164062 C 109.78125 154.988281 109.886719 154.828125 110.023438 154.691406 C 110.160156 154.554688 110.320312 154.449219 110.496094 154.375 C 110.675781 154.300781 110.863281 154.265625 111.054688 154.265625 C 111.25 154.265625 111.433594 154.300781 111.613281 154.375 C 111.792969 154.449219 111.949219 154.554688 112.085938 154.691406 C 112.222656 154.828125 112.328125 154.988281 112.402344 155.164062 C 112.476562 155.34375 112.511719 155.53125 112.511719 155.722656 Z M 112.511719 155.722656"/><path fill="#382317" d="M 114.058594 164.90625 C 114.058594 165.144531 113.972656 165.347656 113.804688 165.515625 C 113.636719 165.683594 113.4375 165.765625 113.199219 165.765625 C 112.960938 165.765625 112.761719 165.683594 112.59375 165.515625 C 112.425781 165.347656 112.34375 165.144531 112.34375 164.90625 C 112.34375 164.671875 112.425781 164.46875 112.59375 164.300781 C 112.761719 164.132812 112.960938 164.050781 113.199219 164.050781 C 113.4375 164.050781 113.636719 164.132812 113.804688 164.300781 C 113.972656 164.46875 114.058594 164.671875 114.058594 164.90625 Z M 114.058594 164.90625"/><path fill="#382317" d="M 108.226562 171.085938 C 108.226562 171.246094 108.195312 171.402344 108.132812 171.546875 C 108.074219 171.695312 107.984375 171.824219 107.871094 171.9375 C 107.761719 172.050781 107.628906 172.136719 107.484375 172.199219 C 107.335938 172.257812 107.183594 172.289062 107.023438 172.289062 C 106.863281 172.289062 106.710938 172.257812 106.5625 172.199219 C 106.417969 172.136719 106.289062 172.050781 106.175781 171.9375 C 106.0625 171.824219 105.976562 171.695312 105.914062 171.546875 C 105.851562 171.402344 105.824219 171.246094 105.824219 171.085938 C 105.824219 170.929688 105.851562 170.773438 105.914062 170.628906 C 105.976562 170.480469 106.0625 170.351562 106.175781 170.238281 C 106.289062 170.125 106.417969 170.039062 106.5625 169.976562 C 106.710938 169.917969 106.863281 169.886719 107.023438 169.886719 C 107.183594 169.886719 107.335938 169.917969 107.484375 169.976562 C 107.628906 170.039062 107.761719 170.125 107.871094 170.238281 C 107.984375 170.351562 108.074219 170.480469 108.132812 170.628906 C 108.195312 170.773438 108.226562 170.929688 108.226562 171.085938 Z M 108.226562 171.085938"/><path fill="#382317" d="M 104.109375 179.671875 C 104.109375 179.859375 104.039062 180.023438 103.90625 180.15625 C 103.773438 180.289062 103.609375 180.359375 103.421875 180.359375 C 103.230469 180.359375 103.070312 180.289062 102.9375 180.15625 C 102.800781 180.023438 102.734375 179.859375 102.734375 179.671875 C 102.734375 179.480469 102.800781 179.320312 102.9375 179.183594 C 103.070312 179.050781 103.230469 178.984375 103.421875 178.984375 C 103.609375 178.984375 103.773438 179.050781 103.90625 179.183594 C 104.039062 179.320312 104.109375 179.480469 104.109375 179.671875 Z M 104.109375 179.671875"/><path fill="#382317" d="M 100.675781 165.59375 C 100.675781 165.800781 100.636719 165.996094 100.558594 166.1875 C 100.480469 166.375 100.367188 166.542969 100.222656 166.6875 C 100.078125 166.832031 99.914062 166.945312 99.722656 167.023438 C 99.535156 167.101562 99.335938 167.140625 99.132812 167.140625 C 98.929688 167.140625 98.730469 167.101562 98.542969 167.023438 C 98.351562 166.945312 98.1875 166.832031 98.039062 166.6875 C 97.894531 166.542969 97.785156 166.375 97.707031 166.1875 C 97.628906 165.996094 97.589844 165.800781 97.589844 165.59375 C 97.589844 165.390625 97.628906 165.191406 97.707031 165.003906 C 97.785156 164.8125 97.894531 164.648438 98.039062 164.503906 C 98.1875 164.355469 98.351562 164.246094 98.542969 164.167969 C 98.730469 164.089844 98.929688 164.050781 99.132812 164.050781 C 99.335938 164.050781 99.535156 164.089844 99.722656 164.167969 C 99.914062 164.246094 100.078125 164.355469 100.222656 164.503906 C 100.367188 164.648438 100.480469 164.8125 100.558594 165.003906 C 100.636719 165.191406 100.675781 165.390625 100.675781 165.59375 Z M 100.675781 165.59375"/><path fill="#382317" d="M 96.042969 175.292969 C 96.042969 175.488281 96.007812 175.671875 95.933594 175.851562 C 95.859375 176.03125 95.753906 176.1875 95.617188 176.324219 C 95.480469 176.460938 95.324219 176.566406 95.144531 176.640625 C 94.964844 176.714844 94.78125 176.753906 94.585938 176.753906 C 94.394531 176.753906 94.207031 176.714844 94.027344 176.640625 C 93.851562 176.566406 93.691406 176.460938 93.554688 176.324219 C 93.417969 176.1875 93.3125 176.03125 93.238281 175.851562 C 93.164062 175.671875 93.128906 175.488281 93.128906 175.292969 C 93.128906 175.101562 93.164062 174.914062 93.238281 174.734375 C 93.3125 174.554688 93.417969 174.398438 93.554688 174.261719 C 93.691406 174.125 93.851562 174.019531 94.027344 173.945312 C 94.207031 173.871094 94.394531 173.835938 94.585938 173.835938 C 94.78125 173.835938 94.964844 173.871094 95.144531 173.945312 C 95.324219 174.019531 95.480469 174.125 95.617188 174.261719 C 95.753906 174.398438 95.859375 174.554688 95.933594 174.734375 C 96.007812 174.914062 96.042969 175.101562 96.042969 175.292969 Z M 96.042969 175.292969"/><path fill="#382317" d="M 101.535156 174.605469 C 101.535156 174.820312 101.457031 175.003906 101.308594 175.152344 C 101.15625 175.304688 100.976562 175.378906 100.761719 175.378906 C 100.550781 175.378906 100.367188 175.304688 100.214844 175.152344 C 100.066406 175.003906 99.992188 174.820312 99.992188 174.605469 C 99.992188 174.394531 100.066406 174.210938 100.214844 174.0625 C 100.367188 173.910156 100.550781 173.835938 100.761719 173.835938 C 100.976562 173.835938 101.15625 173.910156 101.308594 174.0625 C 101.457031 174.210938 101.535156 174.394531 101.535156 174.605469 Z M 101.535156 174.605469"/><path fill="#382317" d="M 115.945312 172.804688 C 115.945312 173.03125 115.902344 173.25 115.8125 173.460938 C 115.726562 173.671875 115.601562 173.855469 115.441406 174.019531 C 115.28125 174.179688 115.09375 174.304688 114.886719 174.390625 C 114.675781 174.476562 114.457031 174.519531 114.230469 174.519531 C 114 174.519531 113.78125 174.476562 113.574219 174.390625 C 113.363281 174.304688 113.175781 174.179688 113.015625 174.019531 C 112.855469 173.855469 112.730469 173.671875 112.644531 173.460938 C 112.558594 173.25 112.511719 173.03125 112.511719 172.804688 C 112.511719 172.578125 112.558594 172.359375 112.644531 172.148438 C 112.730469 171.9375 112.855469 171.75 113.015625 171.589844 C 113.175781 171.429688 113.363281 171.304688 113.574219 171.21875 C 113.78125 171.132812 114 171.085938 114.230469 171.085938 C 114.457031 171.085938 114.675781 171.132812 114.886719 171.21875 C 115.09375 171.304688 115.28125 171.429688 115.441406 171.589844 C 115.601562 171.75 115.726562 171.9375 115.8125 172.148438 C 115.902344 172.359375 115.945312 172.578125 115.945312 172.804688 Z M 115.945312 172.804688"/><path fill="#382317" d="M 114.230469 181.730469 C 114.230469 181.914062 114.195312 182.089844 114.125 182.257812 C 114.054688 182.425781 113.957031 182.574219 113.828125 182.703125 C 113.699219 182.832031 113.550781 182.929688 113.382812 183 C 113.214844 183.070312 113.039062 183.105469 112.855469 183.105469 C 112.675781 183.105469 112.5 183.070312 112.332031 183 C 112.164062 182.929688 112.015625 182.832031 111.886719 182.703125 C 111.757812 182.574219 111.65625 182.425781 111.589844 182.257812 C 111.519531 182.089844 111.484375 181.914062 111.484375 181.730469 C 111.484375 181.546875 111.519531 181.375 111.589844 181.207031 C 111.65625 181.035156 111.757812 180.886719 111.886719 180.757812 C 112.015625 180.632812 112.164062 180.53125 112.332031 180.460938 C 112.5 180.390625 112.675781 180.359375 112.855469 180.359375 C 113.039062 180.359375 113.214844 180.390625 113.382812 180.460938 C 113.550781 180.53125 113.699219 180.632812 113.828125 180.757812 C 113.957031 180.886719 114.054688 181.035156 114.125 181.207031 C 114.195312 181.375 114.230469 181.546875 114.230469 181.730469 Z M 114.230469 181.730469"/><path fill="#382317" d="M 124.695312 164.90625 C 124.695312 165.179688 124.640625 165.445312 124.535156 165.695312 C 124.433594 165.949219 124.285156 166.171875 124.089844 166.363281 C 123.898438 166.558594 123.675781 166.707031 123.421875 166.8125 C 123.171875 166.914062 122.90625 166.96875 122.636719 166.96875 C 122.363281 166.96875 122.097656 166.914062 121.847656 166.8125 C 121.59375 166.707031 121.371094 166.558594 121.179688 166.363281 C 120.984375 166.171875 120.835938 165.949219 120.734375 165.695312 C 120.628906 165.445312 120.578125 165.179688 120.578125 164.90625 C 120.578125 164.636719 120.628906 164.371094 120.734375 164.121094 C 120.835938 163.867188 120.984375 163.644531 121.179688 163.453125 C 121.371094 163.257812 121.59375 163.109375 121.847656 163.003906 C 122.097656 162.902344 122.363281 162.847656 122.636719 162.847656 C 122.90625 162.847656 123.171875 162.902344 123.421875 163.003906 C 123.675781 163.109375 123.898438 163.257812 124.089844 163.453125 C 124.285156 163.644531 124.433594 163.867188 124.535156 164.121094 C 124.640625 164.371094 124.695312 164.636719 124.695312 164.90625 Z M 124.695312 164.90625"/><path fill="#382317" d="M 118.519531 156.410156 C 118.519531 156.625 118.441406 156.804688 118.292969 156.957031 C 118.140625 157.109375 117.957031 157.183594 117.746094 157.183594 C 117.53125 157.183594 117.351562 157.109375 117.199219 156.957031 C 117.050781 156.804688 116.972656 156.625 116.972656 156.410156 C 116.972656 156.199219 117.050781 156.015625 117.199219 155.863281 C 117.351562 155.714844 117.53125 155.636719 117.746094 155.636719 C 117.957031 155.636719 118.140625 155.714844 118.292969 155.863281 C 118.441406 156.015625 118.519531 156.199219 118.519531 156.410156 Z M 118.519531 156.410156"/><path fill="#382317" d="M 103.421875 157.011719 C 103.421875 157.195312 103.386719 157.367188 103.316406 157.539062 C 103.246094 157.707031 103.148438 157.855469 103.019531 157.984375 C 102.890625 158.113281 102.742188 158.210938 102.574219 158.28125 C 102.40625 158.351562 102.230469 158.386719 102.050781 158.386719 C 101.867188 158.386719 101.691406 158.351562 101.523438 158.28125 C 101.355469 158.210938 101.207031 158.113281 101.078125 157.984375 C 100.949219 157.855469 100.851562 157.707031 100.78125 157.539062 C 100.710938 157.367188 100.675781 157.195312 100.675781 157.011719 C 100.675781 156.828125 100.710938 156.65625 100.78125 156.484375 C 100.851562 156.316406 100.949219 156.167969 101.078125 156.039062 C 101.207031 155.910156 101.355469 155.8125 101.523438 155.742188 C 101.691406 155.671875 101.867188 155.636719 102.050781 155.636719 C 102.230469 155.636719 102.40625 155.671875 102.574219 155.742188 C 102.742188 155.8125 102.890625 155.910156 103.019531 156.039062 C 103.148438 156.167969 103.246094 156.316406 103.316406 156.484375 C 103.386719 156.65625 103.421875 156.828125 103.421875 157.011719 Z M 103.421875 157.011719"/><path fill="#382317" d="M 118.6875 149.628906 C 118.6875 149.8125 118.65625 149.988281 118.585938 150.15625 C 118.515625 150.324219 118.414062 150.472656 118.289062 150.601562 C 118.160156 150.730469 118.011719 150.828125 117.84375 150.898438 C 117.671875 150.96875 117.5 151.003906 117.316406 151.003906 C 117.136719 151.003906 116.960938 150.96875 116.792969 150.898438 C 116.625 150.828125 116.476562 150.730469 116.347656 150.601562 C 116.21875 150.472656 116.117188 150.324219 116.050781 150.15625 C 115.980469 149.988281 115.945312 149.8125 115.945312 149.628906 C 115.945312 149.449219 115.980469 149.273438 116.050781 149.105469 C 116.117188 148.9375 116.21875 148.789062 116.347656 148.660156 C 116.476562 148.53125 116.625 148.429688 116.792969 148.363281 C 116.960938 148.292969 117.136719 148.257812 117.316406 148.257812 C 117.5 148.257812 117.671875 148.292969 117.84375 148.363281 C 118.011719 148.429688 118.160156 148.53125 118.289062 148.660156 C 118.414062 148.789062 118.515625 148.9375 118.585938 149.105469 C 118.65625 149.273438 118.6875 149.449219 118.6875 149.628906 Z M 118.6875 149.628906"/><path fill="#382317" d="M 126.753906 143.277344 C 126.753906 143.421875 126.703125 143.542969 126.601562 143.644531 C 126.5 143.742188 126.378906 143.792969 126.238281 143.792969 C 126.09375 143.792969 125.972656 143.742188 125.875 143.644531 C 125.773438 143.542969 125.722656 143.421875 125.722656 143.277344 C 125.722656 143.136719 125.773438 143.015625 125.875 142.914062 C 125.972656 142.8125 126.09375 142.765625 126.238281 142.765625 C 126.378906 142.765625 126.5 142.8125 126.601562 142.914062 C 126.703125 143.015625 126.753906 143.136719 126.753906 143.277344 Z M 126.753906 143.277344"/><path fill="#382317" d="M 126.921875 153.664062 C 126.921875 153.832031 126.863281 153.972656 126.746094 154.089844 C 126.628906 154.207031 126.488281 154.265625 126.324219 154.265625 C 126.15625 154.265625 126.015625 154.207031 125.898438 154.089844 C 125.78125 153.972656 125.722656 153.832031 125.722656 153.664062 C 125.722656 153.5 125.78125 153.355469 125.898438 153.238281 C 126.015625 153.121094 126.15625 153.0625 126.324219 153.0625 C 126.488281 153.0625 126.628906 153.121094 126.746094 153.238281 C 126.863281 153.355469 126.921875 153.5 126.921875 153.664062 Z M 126.921875 153.664062"/><path fill="#382317" d="M 103.421875 187.652344 C 103.421875 187.914062 103.328125 188.136719 103.144531 188.320312 C 102.960938 188.503906 102.738281 188.597656 102.476562 188.597656 C 102.21875 188.597656 101.996094 188.503906 101.8125 188.320312 C 101.625 188.136719 101.535156 187.914062 101.535156 187.652344 C 101.535156 187.390625 101.625 187.167969 101.8125 186.984375 C 101.996094 186.800781 102.21875 186.707031 102.476562 186.707031 C 102.738281 186.707031 102.960938 186.800781 103.144531 186.984375 C 103.328125 187.167969 103.421875 187.390625 103.421875 187.652344 Z M 103.421875 187.652344"/><path fill="#382317" d="M 104.109375 194.777344 C 104.109375 195.015625 104.023438 195.214844 103.855469 195.382812 C 103.6875 195.550781 103.488281 195.636719 103.25 195.636719 C 103.011719 195.636719 102.8125 195.550781 102.644531 195.382812 C 102.476562 195.214844 102.390625 195.015625 102.390625 194.777344 C 102.390625 194.539062 102.476562 194.335938 102.644531 194.171875 C 102.8125 194.003906 103.011719 193.917969 103.25 193.917969 C 103.488281 193.917969 103.6875 194.003906 103.855469 194.171875 C 104.023438 194.335938 104.109375 194.539062 104.109375 194.777344 Z M 104.109375 194.777344"/><path fill="#382317" d="M 97.589844 191.859375 C 97.589844 192.019531 97.558594 192.171875 97.496094 192.320312 C 97.4375 192.464844 97.347656 192.597656 97.238281 192.707031 C 97.125 192.820312 96.996094 192.90625 96.847656 192.96875 C 96.699219 193.03125 96.546875 193.058594 96.386719 193.058594 C 96.226562 193.058594 96.074219 193.03125 95.929688 192.96875 C 95.78125 192.90625 95.652344 192.820312 95.539062 192.707031 C 95.425781 192.597656 95.339844 192.464844 95.277344 192.320312 C 95.21875 192.171875 95.1875 192.019531 95.1875 191.859375 C 95.1875 191.699219 95.21875 191.546875 95.277344 191.398438 C 95.339844 191.25 95.425781 191.121094 95.539062 191.007812 C 95.652344 190.894531 95.78125 190.808594 95.929688 190.75 C 96.074219 190.6875 96.226562 190.65625 96.386719 190.65625 C 96.546875 190.65625 96.699219 190.6875 96.847656 190.75 C 96.996094 190.808594 97.125 190.894531 97.238281 191.007812 C 97.347656 191.121094 97.4375 191.25 97.496094 191.398438 C 97.558594 191.546875 97.589844 191.699219 97.589844 191.859375 Z M 97.589844 191.859375"/><path fill="#382317" d="M 94.5 182.417969 C 94.5 182.605469 94.433594 182.769531 94.300781 182.902344 C 94.164062 183.035156 94.003906 183.105469 93.816406 183.105469 C 93.625 183.105469 93.464844 183.035156 93.328125 182.902344 C 93.195312 182.769531 93.128906 182.605469 93.128906 182.417969 C 93.128906 182.226562 93.195312 182.066406 93.328125 181.933594 C 93.464844 181.796875 93.625 181.730469 93.816406 181.730469 C 94.003906 181.730469 94.164062 181.796875 94.300781 181.933594 C 94.433594 182.066406 94.5 182.226562 94.5 182.417969 Z M 94.5 182.417969"/><path fill="#382317" d="M 99.992188 201.300781 C 99.992188 201.460938 99.960938 201.613281 99.898438 201.761719 C 99.839844 201.90625 99.75 202.035156 99.636719 202.148438 C 99.527344 202.261719 99.394531 202.347656 99.25 202.410156 C 99.101562 202.472656 98.949219 202.5 98.789062 202.5 C 98.628906 202.5 98.476562 202.472656 98.328125 202.410156 C 98.183594 202.347656 98.054688 202.261719 97.941406 202.148438 C 97.828125 202.035156 97.742188 201.90625 97.679688 201.761719 C 97.617188 201.613281 97.589844 201.460938 97.589844 201.300781 C 97.589844 201.140625 97.617188 200.988281 97.679688 200.839844 C 97.742188 200.691406 97.828125 200.5625 97.941406 200.449219 C 98.054688 200.335938 98.183594 200.25 98.328125 200.191406 C 98.476562 200.128906 98.628906 200.097656 98.789062 200.097656 C 98.949219 200.097656 99.101562 200.128906 99.25 200.191406 C 99.394531 200.25 99.527344 200.335938 99.636719 200.449219 C 99.75 200.5625 99.839844 200.691406 99.898438 200.839844 C 99.960938 200.988281 99.992188 201.140625 99.992188 201.300781 Z M 99.992188 201.300781"/><path fill="#382317" d="M 112 191.859375 C 112 192.019531 111.96875 192.171875 111.90625 192.320312 C 111.847656 192.464844 111.757812 192.597656 111.648438 192.707031 C 111.535156 192.820312 111.40625 192.90625 111.257812 192.96875 C 111.109375 193.03125 110.957031 193.058594 110.796875 193.058594 C 110.636719 193.058594 110.484375 193.03125 110.339844 192.96875 C 110.191406 192.90625 110.0625 192.820312 109.949219 192.707031 C 109.835938 192.597656 109.75 192.464844 109.6875 192.320312 C 109.628906 192.171875 109.597656 192.019531 109.597656 191.859375 C 109.597656 191.699219 109.628906 191.546875 109.6875 191.398438 C 109.75 191.25 109.835938 191.121094 109.949219 191.007812 C 110.0625 190.894531 110.191406 190.808594 110.339844 190.75 C 110.484375 190.6875 110.636719 190.65625 110.796875 190.65625 C 110.957031 190.65625 111.109375 190.6875 111.257812 190.75 C 111.40625 190.808594 111.535156 190.894531 111.648438 191.007812 C 111.757812 191.121094 111.847656 191.25 111.90625 191.398438 C 111.96875 191.546875 112 191.699219 112 191.859375 Z M 112 191.859375"/><path fill="#382317" d="M 122.121094 174.605469 C 122.121094 174.820312 122.042969 175.003906 121.894531 175.152344 C 121.742188 175.304688 121.5625 175.378906 121.347656 175.378906 C 121.136719 175.378906 120.953125 175.304688 120.800781 175.152344 C 120.652344 175.003906 120.578125 174.820312 120.578125 174.605469 C 120.578125 174.394531 120.652344 174.210938 120.800781 174.0625 C 120.953125 173.910156 121.136719 173.835938 121.347656 173.835938 C 121.5625 173.835938 121.742188 173.910156 121.894531 174.0625 C 122.042969 174.210938 122.121094 174.394531 122.121094 174.605469 Z M 122.121094 174.605469"/><path fill="#382317" d="M 104.109375 211.515625 C 104.109375 211.683594 104.074219 211.847656 104.007812 212.007812 C 103.945312 212.164062 103.851562 212.304688 103.730469 212.425781 C 103.609375 212.546875 103.472656 212.636719 103.3125 212.703125 C 103.15625 212.769531 102.992188 212.800781 102.820312 212.800781 C 102.648438 212.800781 102.484375 212.769531 102.328125 212.703125 C 102.171875 212.636719 102.03125 212.546875 101.910156 212.425781 C 101.789062 212.304688 101.699219 212.164062 101.632812 212.007812 C 101.566406 211.847656 101.535156 211.683594 101.535156 211.515625 C 101.535156 211.34375 101.566406 211.179688 101.632812 211.019531 C 101.699219 210.863281 101.789062 210.722656 101.910156 210.605469 C 102.03125 210.484375 102.171875 210.390625 102.328125 210.324219 C 102.484375 210.257812 102.648438 210.226562 102.820312 210.226562 C 102.992188 210.226562 103.15625 210.257812 103.3125 210.324219 C 103.472656 210.390625 103.609375 210.484375 103.730469 210.605469 C 103.851562 210.722656 103.945312 210.863281 104.007812 211.019531 C 104.074219 211.179688 104.109375 211.34375 104.109375 211.515625 Z M 104.109375 211.515625"/><path fill="#382317" d="M 109.082031 204.476562 C 109.082031 204.6875 109.007812 204.871094 108.855469 205.023438 C 108.707031 205.171875 108.523438 205.25 108.308594 205.25 C 108.097656 205.25 107.914062 205.171875 107.765625 205.023438 C 107.613281 204.871094 107.539062 204.6875 107.539062 204.476562 C 107.539062 204.261719 107.613281 204.082031 107.765625 203.929688 C 107.914062 203.777344 108.097656 203.703125 108.308594 203.703125 C 108.523438 203.703125 108.707031 203.777344 108.855469 203.929688 C 109.007812 204.082031 109.082031 204.261719 109.082031 204.476562 Z M 109.082031 204.476562"/><path fill="#382317" d="M 109.082031 223.1875 C 109.082031 223.402344 109.042969 223.609375 108.957031 223.8125 C 108.875 224.011719 108.757812 224.1875 108.605469 224.339844 C 108.453125 224.492188 108.277344 224.609375 108.078125 224.695312 C 107.875 224.777344 107.667969 224.816406 107.453125 224.816406 C 107.238281 224.816406 107.027344 224.777344 106.828125 224.695312 C 106.628906 224.609375 106.453125 224.492188 106.300781 224.339844 C 106.148438 224.1875 106.03125 224.011719 105.945312 223.8125 C 105.863281 223.609375 105.824219 223.402344 105.824219 223.1875 C 105.824219 222.96875 105.863281 222.761719 105.945312 222.5625 C 106.03125 222.363281 106.148438 222.1875 106.300781 222.035156 C 106.453125 221.878906 106.628906 221.761719 106.828125 221.679688 C 107.027344 221.597656 107.238281 221.554688 107.453125 221.554688 C 107.667969 221.554688 107.875 221.597656 108.078125 221.679688 C 108.277344 221.761719 108.453125 221.878906 108.605469 222.035156 C 108.757812 222.1875 108.875 222.363281 108.957031 222.5625 C 109.042969 222.761719 109.082031 222.96875 109.082031 223.1875 Z M 109.082031 223.1875"/><path fill="#382317" d="M 114.742188 212.714844 C 114.742188 212.863281 114.714844 213.003906 114.660156 213.140625 C 114.601562 213.277344 114.523438 213.398438 114.417969 213.503906 C 114.3125 213.609375 114.191406 213.691406 114.054688 213.746094 C 113.917969 213.804688 113.777344 213.832031 113.628906 213.832031 C 113.480469 213.832031 113.339844 213.804688 113.203125 213.746094 C 113.066406 213.691406 112.945312 213.609375 112.839844 213.503906 C 112.734375 213.398438 112.65625 213.277344 112.597656 213.140625 C 112.542969 213.003906 112.511719 212.863281 112.511719 212.714844 C 112.511719 212.566406 112.542969 212.425781 112.597656 212.289062 C 112.65625 212.152344 112.734375 212.03125 112.839844 211.925781 C 112.945312 211.820312 113.066406 211.742188 113.203125 211.683594 C 113.339844 211.628906 113.480469 211.601562 113.628906 211.601562 C 113.777344 211.601562 113.917969 211.628906 114.054688 211.683594 C 114.191406 211.742188 114.3125 211.820312 114.417969 211.925781 C 114.523438 212.03125 114.601562 212.152344 114.660156 212.289062 C 114.714844 212.425781 114.742188 212.566406 114.742188 212.714844 Z M 114.742188 212.714844"/><path fill="#382317" d="M 117.660156 223.015625 C 117.660156 223.207031 117.621094 223.394531 117.550781 223.574219 C 117.476562 223.753906 117.371094 223.910156 117.234375 224.046875 C 117.097656 224.183594 116.9375 224.289062 116.757812 224.363281 C 116.582031 224.4375 116.394531 224.472656 116.203125 224.472656 C 116.007812 224.472656 115.824219 224.4375 115.644531 224.363281 C 115.464844 224.289062 115.308594 224.183594 115.171875 224.046875 C 115.035156 223.910156 114.929688 223.753906 114.855469 223.574219 C 114.78125 223.394531 114.742188 223.207031 114.742188 223.015625 C 114.742188 222.820312 114.78125 222.636719 114.855469 222.457031 C 114.929688 222.277344 115.035156 222.121094 115.171875 221.984375 C 115.308594 221.847656 115.464844 221.742188 115.644531 221.667969 C 115.824219 221.59375 116.007812 221.554688 116.203125 221.554688 C 116.394531 221.554688 116.582031 221.59375 116.757812 221.667969 C 116.9375 221.742188 117.097656 221.847656 117.234375 221.984375 C 117.371094 222.121094 117.476562 222.277344 117.550781 222.457031 C 117.621094 222.636719 117.660156 222.820312 117.660156 223.015625 Z M 117.660156 223.015625"/><path fill="#382317" d="M 112.511719 231.511719 C 112.511719 231.703125 112.445312 231.863281 112.3125 231.996094 C 112.179688 232.132812 112.015625 232.199219 111.828125 232.199219 C 111.636719 232.199219 111.476562 232.132812 111.34375 231.996094 C 111.207031 231.863281 111.140625 231.703125 111.140625 231.511719 C 111.140625 231.324219 111.207031 231.160156 111.34375 231.027344 C 111.476562 230.894531 111.636719 230.824219 111.828125 230.824219 C 112.015625 230.824219 112.179688 230.894531 112.3125 231.027344 C 112.445312 231.160156 112.511719 231.324219 112.511719 231.511719 Z M 112.511719 231.511719"/><path fill="#382317" d="M 113.199219 238.550781 C 113.199219 238.789062 113.117188 238.988281 112.949219 239.15625 C 112.78125 239.324219 112.578125 239.410156 112.34375 239.410156 C 112.105469 239.410156 111.902344 239.324219 111.734375 239.15625 C 111.566406 238.988281 111.484375 238.789062 111.484375 238.550781 C 111.484375 238.3125 111.566406 238.109375 111.734375 237.945312 C 111.902344 237.777344 112.105469 237.691406 112.34375 237.691406 C 112.578125 237.691406 112.78125 237.777344 112.949219 237.945312 C 113.117188 238.109375 113.199219 238.3125 113.199219 238.550781 Z M 113.199219 238.550781"/><path fill="#382317" d="M 118.519531 231.855469 C 118.519531 231.949219 118.484375 232.03125 118.417969 232.097656 C 118.351562 232.164062 118.269531 232.199219 118.175781 232.199219 C 118.078125 232.199219 118 232.164062 117.933594 232.097656 C 117.863281 232.03125 117.832031 231.949219 117.832031 231.855469 C 117.832031 231.761719 117.863281 231.679688 117.933594 231.613281 C 118 231.546875 118.078125 231.511719 118.175781 231.511719 C 118.269531 231.511719 118.351562 231.546875 118.417969 231.613281 C 118.484375 231.679688 118.519531 231.761719 118.519531 231.855469 Z M 118.519531 231.855469"/><path fill="#382317" d="M 105.824219 228.164062 C 105.824219 228.285156 105.78125 228.382812 105.699219 228.46875 C 105.613281 228.550781 105.511719 228.59375 105.394531 228.59375 C 105.277344 228.59375 105.175781 228.550781 105.089844 228.46875 C 105.007812 228.382812 104.964844 228.285156 104.964844 228.164062 C 104.964844 228.046875 105.007812 227.945312 105.089844 227.863281 C 105.175781 227.777344 105.277344 227.734375 105.394531 227.734375 C 105.511719 227.734375 105.613281 227.777344 105.699219 227.863281 C 105.78125 227.945312 105.824219 228.046875 105.824219 228.164062 Z M 105.824219 228.164062"/><path fill="#382317" d="M 100.675781 216.75 C 100.675781 216.84375 100.644531 216.925781 100.574219 216.992188 C 100.507812 217.058594 100.429688 217.09375 100.332031 217.09375 C 100.238281 217.09375 100.15625 217.058594 100.089844 216.992188 C 100.023438 216.925781 99.992188 216.84375 99.992188 216.75 C 99.992188 216.65625 100.023438 216.574219 100.089844 216.507812 C 100.15625 216.441406 100.238281 216.40625 100.332031 216.40625 C 100.429688 216.40625 100.507812 216.441406 100.574219 216.507812 C 100.644531 216.574219 100.675781 216.65625 100.675781 216.75 Z M 100.675781 216.75"/><path fill="#382317" d="M 97.589844 207.394531 C 97.589844 207.558594 97.53125 207.703125 97.414062 207.820312 C 97.296875 207.9375 97.152344 207.996094 96.988281 207.996094 C 96.824219 207.996094 96.679688 207.9375 96.5625 207.820312 C 96.445312 207.703125 96.386719 207.558594 96.386719 207.394531 C 96.386719 207.226562 96.445312 207.085938 96.5625 206.96875 C 96.679688 206.851562 96.824219 206.792969 96.988281 206.792969 C 97.152344 206.792969 97.296875 206.851562 97.414062 206.96875 C 97.53125 207.085938 97.589844 207.226562 97.589844 207.394531 Z M 97.589844 207.394531"/><path fill="#382317" d="M 109.082031 217.78125 C 109.082031 217.917969 109.054688 218.046875 109.003906 218.171875 C 108.953125 218.300781 108.878906 218.410156 108.78125 218.507812 C 108.683594 218.605469 108.574219 218.679688 108.445312 218.730469 C 108.320312 218.785156 108.191406 218.808594 108.054688 218.808594 C 107.917969 218.808594 107.785156 218.785156 107.660156 218.730469 C 107.53125 218.679688 107.421875 218.605469 107.324219 218.507812 C 107.230469 218.410156 107.15625 218.300781 107.101562 218.171875 C 107.050781 218.046875 107.023438 217.917969 107.023438 217.78125 C 107.023438 217.644531 107.050781 217.511719 107.101562 217.386719 C 107.15625 217.257812 107.230469 217.148438 107.324219 217.050781 C 107.421875 216.953125 107.53125 216.878906 107.660156 216.828125 C 107.785156 216.777344 107.917969 216.75 108.054688 216.75 C 108.191406 216.75 108.320312 216.777344 108.445312 216.828125 C 108.574219 216.878906 108.683594 216.953125 108.78125 217.050781 C 108.878906 217.148438 108.953125 217.257812 109.003906 217.386719 C 109.054688 217.511719 109.082031 217.644531 109.082031 217.78125 Z M 109.082031 217.78125"/><path fill="#382317" d="M 109.082031 197.953125 C 109.082031 198.167969 109.007812 198.347656 108.855469 198.5 C 108.707031 198.648438 108.523438 198.726562 108.308594 198.726562 C 108.097656 198.726562 107.914062 198.648438 107.765625 198.5 C 107.613281 198.347656 107.539062 198.167969 107.539062 197.953125 C 107.539062 197.738281 107.613281 197.558594 107.765625 197.40625 C 107.914062 197.253906 108.097656 197.179688 108.308594 197.179688 C 108.523438 197.179688 108.707031 197.253906 108.855469 197.40625 C 109.007812 197.558594 109.082031 197.738281 109.082031 197.953125 Z M 109.082031 197.953125"/><path fill="#382317" d="M 114.742188 142.25 C 114.742188 142.34375 114.710938 142.425781 114.644531 142.492188 C 114.574219 142.558594 114.496094 142.59375 114.402344 142.59375 C 114.304688 142.59375 114.226562 142.558594 114.15625 142.492188 C 114.089844 142.425781 114.058594 142.34375 114.058594 142.25 C 114.058594 142.152344 114.089844 142.074219 114.15625 142.007812 C 114.226562 141.9375 114.304688 141.90625 114.402344 141.90625 C 114.496094 141.90625 114.574219 141.9375 114.644531 142.007812 C 114.710938 142.074219 114.742188 142.152344 114.742188 142.25 Z M 114.742188 142.25"/><path fill="#382317" d="M 161.0625 93.066406 C 161.0625 93.328125 160.96875 93.550781 160.785156 93.734375 C 160.601562 93.921875 160.378906 94.011719 160.117188 94.011719 C 159.859375 94.011719 159.636719 93.921875 159.449219 93.734375 C 159.265625 93.550781 159.175781 93.328125 159.175781 93.066406 C 159.175781 92.808594 159.265625 92.585938 159.449219 92.402344 C 159.636719 92.214844 159.859375 92.125 160.117188 92.125 C 160.378906 92.125 160.601562 92.214844 160.785156 92.402344 C 160.96875 92.585938 161.0625 92.808594 161.0625 93.066406 Z M 161.0625 93.066406"/></svg>